<?xml version="1.0" encoding="UTF-8"?> <svg xmlns="http://www.w3.org/2000/svg" xmlns:xlink="http://www.w3.org/1999/xlink" width="600" height="491"><style><![CDATA[.E{fill-rule:evenodd;clip-rule:evenodd;fill:#42bdbd}.F{fill-rule:evenodd;clip-rule:evenodd;fill:#0699a3}.G{fill-rule:evenodd;clip-rule:evenodd;fill:#e5e6ea}.H{fill-rule:evenodd;clip-rule:evenodd;fill:#b9bdc0}.I{fill-rule:evenodd;clip-rule:evenodd;fill:#041d33}.J{fill-rule:evenodd;clip-rule:evenodd;fill:#576973}.K{fill-rule:evenodd;clip-rule:evenodd;fill:#fffefa}.L{fill-rule:evenodd;clip-rule:evenodd;fill:#057e87}.M{fill-rule:evenodd;clip-rule:evenodd;fill:#0baeba}.N{fill-rule:evenodd;clip-rule:evenodd;fill:#fad299}.O{fill-rule:evenodd;clip-rule:evenodd;fill:#f0c17d}.Q{fill-rule:evenodd;clip-rule:evenodd;fill:#34a3a3}.R{fill-rule:evenodd;clip-rule:evenodd;fill:#f0f0f0}.S{fill-rule:evenodd;clip-rule:evenodd;fill:#fafafa}.T{fill-rule:evenodd;clip-rule:evenodd;fill:#e6e6e6}.Y{fill-rule:evenodd;clip-rule:evenodd;fill:#9c9ea2}.Z{fill-rule:evenodd;clip-rule:evenodd;fill:#331202}.d{fill-rule:evenodd;clip-rule:evenodd;fill:#068891}.e{fill-rule:evenodd;clip-rule:evenodd;fill:#079da8}.f{fill-rule:evenodd;clip-rule:evenodd;fill:#077e87}.g{fill-rule:evenodd;clip-rule:evenodd;fill:#05223b}.j{fill-rule:evenodd;clip-rule:evenodd;fill:#ffdba7}.l{fill-rule:evenodd;clip-rule:evenodd;fill:#032747}.m{fill-rule:evenodd;clip-rule:evenodd;fill:#1a1a1a}.n{fill-rule:evenodd;clip-rule:evenodd;fill:#363636}.q{fill-rule:evenodd;clip-rule:evenodd;fill:#854035}.r{fill-rule:evenodd;clip-rule:evenodd;fill:#ff5a00}.s{fill-rule:evenodd;clip-rule:evenodd;fill:#ff6e00}.t{fill-rule:evenodd;clip-rule:evenodd;fill:#7e4b36}.u{fill-rule:evenodd;clip-rule:evenodd;fill:#593424}.v{fill-rule:evenodd;clip-rule:evenodd;fill:#92583a}.w{fill-rule:evenodd;clip-rule:evenodd;fill:#45661a}.x{fill-rule:evenodd;clip-rule:evenodd;fill:#76a33c}.y{fill-rule:evenodd;clip-rule:evenodd;fill:#608c27}.z{fill-rule:evenodd;clip-rule:evenodd;fill:#f59a11}.AA{fill-rule:evenodd;clip-rule:evenodd;fill:#ffa621}.AB{fill-rule:evenodd;clip-rule:evenodd;fill:#309c3d}.AC{fill-rule:evenodd;clip-rule:evenodd;fill:#46b853}.AD{fill-rule:evenodd;clip-rule:evenodd;fill:#96efff}.AJ{fill-rule:evenodd;clip-rule:evenodd;fill:#bdbdbc}.AK{fill-rule:evenodd;clip-rule:evenodd;fill:#cccbcb}.AL{fill-rule:evenodd;clip-rule:evenodd;fill:#08355c}.AM{fill-rule:evenodd;clip-rule:evenodd;fill:#c1e3e3}.AN{fill-rule:evenodd;clip-rule:evenodd;fill:#dbdbdb}.AP{fill-rule:evenodd;clip-rule:evenodd;fill:#252422}.AQ{fill-rule:evenodd}]]></style><g class="AQ"><path d="M595.3 344.4L349.5 487.3 6.7 289.4l245.8-142.9z" fill="#2293b5"></path><path d="M17.4 150l3 75.3-3.7 69.9-10-5.8.6-145.2z" fill="#d1edfb"></path><path d="M261.3 7.8l2.2-.7-.6 145.1-246.2 143 .7-145.8z" fill="#bddff0"></path><path d="M263.6 7.1L17.4 150l-10.1-5.8L253.5 1.3z" fill="#e0f5ff"></path></g><use xlink:href="#B" class="E"></use><path class="F" d="M253.9 173.7c3.1-1.8 5.7-.3 5.7 3.2 0 3.6-2.5 8-5.7 9.8-3.1 1.8-5.7.4-5.7-3.2s2.6-8 5.7-9.8z"></path><path class="G" d="M254.1 175.4c2.3-1.3 4.2-.3 4.2 2.4s-1.9 5.9-4.2 7.3c-2.3 1.3-4.2.3-4.2-2.4s1.9-6 4.2-7.3z"></path><path class="H" d="M256.1 155v18l-2.3-1.2V155z"></path><path class="G" d="M259.2 155l.2 18.3c0 6.2-1.4 9.7-4.5 11.3l-2.8-1.4-1.1-4c2.5-5.6 5.1-4.1 5-8.3V155h3.2z"></path><use xlink:href="#B" x="-89.2" y="52" class="I"></use><path class="J" d="M164.8 225.7c3.1-1.8 5.7-.3 5.7 3.2 0 3.6-2.5 8-5.7 9.8-3.1 1.8-5.7.4-5.7-3.2s2.5-8 5.7-9.8z"></path><use xlink:href="#C" class="G"></use><path class="H" d="M167 211.3l-.1 13.7-2.3-1.3.1-12.4z"></path><path class="G" d="M170.1 211.3l.1 14c0 6.2-1.4 9.7-4.5 11.3l-2.8-1.4-1.1-4c2.5-5.6 5.1-4.1 5-8.3l.1-11.6h3.2z"></path><use xlink:href="#B" x="44.8" y="24.6" class="I"></use><path class="J" d="M298.7 198.3c3.1-1.8 5.7-.3 5.7 3.2 0 3.6-2.5 8-5.7 9.8-3.1 1.8-5.7.4-5.7-3.2.1-3.6 2.6-8 5.7-9.8z"></path><path class="G" d="M299 200c2.3-1.3 4.2-.3 4.2 2.4s-1.9 5.9-4.2 7.3c-2.3 1.3-4.2.3-4.2-2.4-.1-2.7 1.8-6 4.2-7.3z"></path><path class="H" d="M300.9 179.6v18l-2.3-1.2v-16.8z"></path><use xlink:href="#D" class="G"></use><use xlink:href="#B" x="-44.3" y="76.5" class="I"></use><path class="J" d="M209.6 250.2c3.1-1.8 5.7-.3 5.7 3.2 0 3.6-2.5 8-5.7 9.8-3.1 1.8-5.7.4-5.7-3.2 0-3.5 2.6-7.9 5.7-9.8z"></path><use xlink:href="#C" x="44.8" y="24.6" class="G"></use><path class="H" d="M211.9 208l-.1 41.6-2.3-1.3.1-41.7z"></path><path class="G" d="M211.9 208l2.8-1.7.4 43.6c0 6.2-1.4 9.7-4.5 11.3l-2.8-1.4-1.1-4c2.5-5.6 5.1-4.1 5-8.3l.2-39.5z"></path><path class="H" d="M147.3 213.4v3.6l46.8 27.2v-3.6z"></path><path class="G" d="M194.1 240.6v3.6l112.2-64.6V176z"></path><path class="K" d="M147.3 213.4l46.8 27.2L306.3 176l-46.8-27.2z"></path><use xlink:href="#E" class="G"></use><use xlink:href="#F" class="K"></use><path class="G" d="M303.5 177.6l2.7-1.6.1-24.6-2.7 1.6z"></path><path class="K" d="M268.1 119.5l29.7 17.2-2.7 1.5-29.7-17.1z"></path><path class="K" d="M303.5 151.8c0-.2 0-.4-.1-.6 0-.2-.1-.5-.1-.7s-.1-.3-.1-.5c0-.1-.1-.3-.1-.4-.1-.2-.1-.4-.2-.6 0-.1-.1-.2-.1-.4-.1-.2-.1-.5-.2-.7 0-.1-.1-.2-.1-.3-.1-.3-.2-.6-.4-.9v-.1c-.1-.3-.3-.6-.4-.8 0-.1-.1-.2-.1-.3-.1-.3-.3-.5-.4-.8 0-.1-.1-.1-.1-.2-.2-.3-.4-.6-.5-.9-.1-.1-.1-.2-.2-.2-.1-.2-.3-.4-.4-.6-.1-.1-.2-.2-.2-.3-.1-.2-.3-.3-.4-.5-.1-.1-.2-.3-.3-.4s-.2-.2-.3-.4l-1.3-1.3c-.2-.1-.3-.3-.5-.4-.1-.1-.2-.2-.3-.2-.2-.1-.4-.3-.5-.4s-.2-.1-.3-.2c-.3-.2-.5-.4-.8-.5l2.7-1.6.8.5c.1.1.2.1.3.2.2.1.4.3.5.4s.2.2.3.2c.2.1.3.3.5.4l1.5 1.5c0 .1.1.1.1.2.1.1.2.3.3.4s.1.2.2.3.1.2.2.2c.1.1.2.2.2.3l.2.2c.1.1.2.3.3.4s.1.2.2.2c0 0 0 .1.1.1.2.2.3.5.4.7v.1c0 .1.1.1.1.2.1.2.2.3.3.5 0 .1.1.2.1.3s.1.2.1.3.1.1.1.2l.3.6v.1l.3.8s0 .1.1.1c0 .1.1.2.1.3s.1.3.1.4.1.2.1.3.1.2.1.4c0 .1 0 .1.1.2 0 .1.1.3.1.4s.1.3.1.4v.2c0 .1 0 .2.1.3 0 .2.1.5.1.7v1.8l-2.7 1.6v-1.2z"></path><use xlink:href="#G" class="H"></use><path class="K" d="M268.4 130c-.2-.1-.3-.1-.5-.2-.1 0-.2-.1-.3-.1s-.2 0-.3-.1c-.1 0-.2 0-.3-.1h-.7c-.2 0-.3 0-.5.1h-.1c-.1 0-.2.1-.4.1h-.1c-.1.1-.3.1-.4.2l1.4-.8c.1-.1.2-.1.3-.2h.2c.1 0 .1 0 .2-.1h1.9c.1 0 .2 0 .3.1h.1s.1 0 .1.1c.2 0 .3.1.5.2.1 0 .1 0 .2.1h.1c.3.1.5.2.8.4l-1.4.8c-.3-.2-.6-.3-.8-.4-.1 0-.2-.1-.3-.1z"></path><path class="G" d="M299 155.1l1.3-.8v19l-1.4.7z"></path><path class="K" d="M270.9 129.7l22.8 13.2-1.3.8-22.9-13.2zm28 24c0-.2-.1-.4-.1-.5s0-.2-.1-.4c0-.1-.1-.2-.1-.3 0-.2-.1-.3-.1-.5 0-.1-.1-.2-.1-.3-.1-.2-.1-.4-.2-.5 0-.1 0-.1-.1-.2-.1-.2-.2-.5-.3-.7v-.1l-.3-.6c0-.1-.1-.1-.1-.2l-.3-.6s0-.1-.1-.1c-.1-.2-.3-.5-.4-.7 0-.1-.1-.1-.1-.2-.1-.2-.2-.3-.3-.5-.1-.1-.1-.2-.2-.2-.1-.1-.2-.3-.3-.4l-.6-.6c-.1-.2-.3-.3-.4-.5l-.2-.2c-.3-.3-.6-.6-.9-.8-.1 0-.1-.1-.2-.1-.3-.3-.7-.5-1-.7l1.4-.8c.4.2.7.4 1 .7.1 0 .1.1.2.1.3.3.6.5.9.8 0 0 .1 0 .1.1l.1.1c.1.2.3.3.4.5 0 .1.1.1.1.1l.6.6c0 .1.1.1.1.2.1.1.1.2.2.2 0 .1.1.1.1.2.1.1.1.2.2.3 0 .1.1.1.1.2 0 0 0 .1.1.1l.3.6s0 .1.1.1a.76.76 0 0 1 .2.4c0 .1.1.1.1.2s.1.1.1.2.1.1.1.2c.1.2.1.3.2.5v.1c.1.2.2.4.2.6v.1c0 .1.1.1.1.2s.1.2.1.3 0 .2.1.2c0 .1.1.2.1.3s0 .1.1.2c0 .1 0 .2.1.3 0 .1.1.2.1.3v.3c0 .2.1.3.1.5v.2c0 .4.1.8.1 1.2l-1.4.8c0-.4 0-.8-.1-1.2.2.1.2 0 .2-.1z"></path><use xlink:href="#H" class="H"></use><path class="L" d="M298 178.5c-.2.1-.4.3-.6.4-.1.1-.2.2-.3.2s-.1.1-.2.1l-2.2-2.8 2.2-5.1c.2-.1.4-.2.5-.3.2-.1.4-.3.6-.4.1-.1.3-.2.4-.3.2-.1.3-.3.5-.4l.6-.6c.2-.2.3-.4.5-.6.1-.2.3-.4.4-.5s.1-.2.2-.3c.1-.2.1-.3.2-.5.1-.1.1-.2.1-.3s.1-.2.1-.4c0-.1.1-.3.1-.4v-.8 8.7c0 .1-.1.2-.1.4 0 .1-.1.2-.1.4 0 .1-.1.2-.1.3-.1.2-.1.3-.2.5v.1c0 .1-.1.1-.1.2-.1.2-.2.4-.4.5 0 0 0 .1-.1.1-.1.2-.3.3-.4.5s-.3.3-.5.5l-.1.1c-.2.1-.3.3-.5.4s-.3.2-.5.3z"></path><path class="L" d="M204.3 225.2l92.6-53.8v7.9l-92.6 53.8zM153.2 204c0 .7.1 1.3.5 1.9.5 1 1.4 2 2.8 2.8l29.6 17.1v7.9l-29.6-17.1c-2.2-1.3-3.3-3-3.3-4.7V204z"></path><path class="L" d="M187.7 234.5c-.1 0-.1-.1-.2-.1-.5-.2-1-.4-1.4-.7l-1.4-4.5 1.5-3.4c.4.3.9.5 1.4.7.1 0 .2.1.3.1l1 .3c.1 0 .2.1.3.1.3.1.6.2.9.2.1 0 .2 0 .3.1.2 0 .3.1.5.1s.4.1.7.1a.9.9 0 0 1 .5.1c.2 0 .5.1.7.1h2.5c.5 0 .9 0 1.4-.1h.3c.4 0 .9-.1 1.3-.2.2 0 .3-.1.5-.1.3 0 .5-.1.8-.2.2 0 .3-.1.5-.1.3-.1.6-.2.9-.2.1 0 .3-.1.4-.1l1.5-.6c.1 0 .2-.1.3-.2.5-.2 1-.5 1.4-.7l1.8 3.5-1.8 4.4c-.5.3-.9.5-1.4.7-.1.1-.2.1-.3.2l-1.5.6c-.1 0-.2.1-.3.1-.3.1-.6.2-.9.2-.2 0-.3.1-.5.1-.3.1-.5.1-.8.2h-.4c-.4.1-.9.1-1.3.2h-.3c-.5 0-.9.1-1.4.1H193c-.2 0-.5 0-.7-.1h-.4c-.2 0-.4-.1-.7-.1-.2 0-.3 0-.5-.1-.1 0-.2 0-.2-.1-.3-.1-.6-.1-.9-.2h-.1c-.1 0-.1 0-.2-.1l-1-.3h-.6z"></path><path class="F" d="M157.5 198.2l92.7-53.8c5.3-3.1 13.4-3.4 18.2-.6l29.6 17.1c4.7 2.7 4.3 7.4-1 10.5l-92.7 53.8c-5.3 3.1-13.4 3.4-18.2.6l-29.6-17.1c-4.8-2.7-4.3-7.4 1-10.5z"></path><path class="M" d="M296.6 158.2l-23.3 12.5-30.6-17.7s13.8-12.5 24.4-12.4c16.4.1 29.5 17.6 29.5 17.6z"></path><use xlink:href="#I" class="N"></use><use xlink:href="#J" class="N"></use><use xlink:href="#K" class="N"></use><path class="O" d="M264.7 157.1c-1.4 1.1-2.2 2.5-3.6 3.7-3.6 1-7.8-2.2-6.3-4.2l2.6-3.3 7.3 3.8z"></path><path class="N" d="M261.7 144.7c-1.5 1.8-2.9 1.4-4.6 5.2-.5 1.1-1.1 3.5-1 3.9.1.5.6 1.9 1 2.3.9.6 4.2 1.4 5.1 1.7 2 .6 2.3.1 4.1-1.3l2.8-1.7 3.8-5.1c-2-3.4-3.9-6.2-5.6-6.9s-2.5-1.6-5.6 1.9z"></path><use xlink:href="#L" fill="#632404" class="AQ"></use><path class="E" d="M222.8 162.2c-11.6 7.3-40.9 23.4-60.3 36.8-8.2 5.6-13.9 10.9-4.9 15.8l17.8 10.4c5.9 3.3 9.4 6.9 23.2-1 19.2-11 40.3-21.8 54.9-31.9 14.8-10.3 1.1-25.5-10.9-31.7-6.6-3.4-14.1-2.1-19.8 1.6z"></path><use xlink:href="#M" class="Q"></use><path class="N" d="M258.2 171.4c-.4.5-5.2 13-5.7 15.5-1.2 3.7 3.7 5.4 6.1 2.6.8-1 2.6-4.2 4.5-7.2 1.2-1.9 1.7-3.2 2.7-4.4 2.3-2.4 4.7-8.3 1.8-12.3-2.5-1.8-7.9 3.7-9.4 5.8zM242.3 193c-2 1.7-2 2.8-5.1 2.2-6.2-.3-7.9 4.6-10.4 7.6-.7.9-.9 1.7-.4 2.4 1.1 1.3 3.2-.5 4.8-1.6 2.2-1.5 2.6-1.4 6.6-2 1.3-.4 2.6-1.5 3.9-2.9l3.1-1.8-2.5-3.9z"></path><use xlink:href="#N" class="N"></use><use xlink:href="#E" x="-109.4" y="62.8" class="G"></use><path class="K" d="M154.6 183.3c-.2-.1-.4-.1-.6-.2-.1 0-.3-.1-.4-.1s-.2-.1-.3-.1c-.2 0-.3-.1-.5-.1h-1c-.2 0-.4 0-.6.1h-.2c-.2 0-.3.1-.5.1-.1 0-.1 0-.1.1l-.6.3 2.7-1.6c.1-.1.3-.1.4-.2h.2c.1 0 .1-.1.2-.1s.2 0 .2-.1h.3c.2 0 .3 0 .5-.1h1.3c.1 0 .2 0 .4.1h.2c.1 0 .1 0 .2.1.2.1.4.1.6.2.1 0 .1 0 .2.1 0 0 .1 0 .1.1l1.1.5-2.4 1.6c-.4-.2-.7-.4-1.1-.5-.1-.1-.2-.2-.3-.2z"></path><path class="G" d="M194.1 240.4l2.7-1.6.1-24.5-2.7 1.6z"></path><path class="K" d="M158.7 182.4l29.7 17.1-2.7 1.6L156 184z"></path><path class="K" d="M194.1 214.6c0-.2 0-.4-.1-.6 0-.2-.1-.5-.1-.7s-.1-.3-.1-.5c0-.1-.1-.3-.1-.4-.1-.2-.1-.4-.2-.6 0-.1-.1-.2-.1-.4-.1-.2-.1-.5-.2-.7 0-.1-.1-.2-.1-.3-.1-.3-.2-.6-.4-.9v-.1c-.1-.3-.3-.6-.4-.8 0-.1-.1-.2-.1-.3-.1-.3-.3-.5-.4-.8 0-.1-.1-.1-.1-.2-.2-.3-.4-.6-.5-.9-.1-.1-.1-.2-.2-.2-.1-.2-.3-.4-.4-.6-.1-.1-.2-.2-.2-.3-.1-.2-.3-.3-.4-.5-.1-.1-.2-.3-.3-.4s-.2-.2-.3-.4l-1.3-1.3c-.2-.1-.3-.3-.5-.4-.1-.1-.2-.2-.3-.2-.2-.1-.4-.3-.5-.4s-.2-.1-.3-.2c-.3-.2-.5-.4-.8-.5l2.7-1.6.8.5c.1.1.2.1.3.2.2.1.4.3.5.4s.2.2.3.2c.2.1.3.3.5.4l1.5 1.5c0 .1.1.1.1.2.1.1.2.3.3.4s.1.2.2.3.1.2.2.2c.1.1.2.2.2.3l.2.2c.1.1.2.3.3.4s.1.2.2.2c0 0 0 .1.1.1.2.2.3.5.4.7v.1s.1.1.1.2c.1.2.2.3.3.5 0 .1.1.2.1.3s.1.2.1.3.1.1.1.2l.3.6v.1l.3.8s0 .1.1.1c0 .1.1.2.1.3s.1.3.1.4.1.2.1.3.1.2.1.4c0 .1 0 .1.1.2 0 .1.1.3.1.4s.1.3.1.4v.1c0 .1 0 .2.1.3 0 .2.1.5.1.7v1.8l-2.7 1.6v-1.1z"></path><use xlink:href="#G" x="-109.4" y="62.8" class="H"></use><use xlink:href="#O" class="K"></use><path class="G" d="M188.3 217.9l1.3-.8V236l-1.4.8z"></path><path class="K" d="M160.2 192.5l22.8 13.2-1.3.8-22.9-13.2zm28 23.9c0-.2-.1-.3-.1-.5 0-.1 0-.2-.1-.4 0-.1-.1-.2-.1-.3 0-.2-.1-.3-.1-.5 0-.1-.1-.2-.1-.3-.1-.2-.1-.4-.2-.5 0-.1-.1-.1-.1-.2-.1-.2-.2-.5-.3-.7v-.1l-.3-.6c0-.1-.1-.1-.1-.2l-.3-.6s0-.1-.1-.1c-.1-.2-.3-.5-.4-.7 0-.1-.1-.1-.1-.2-.1-.2-.2-.3-.3-.5-.1-.1-.1-.2-.2-.2-.1-.1-.2-.3-.3-.4l-.6-.6c-.1-.2-.3-.3-.4-.5l-.2-.2c-.3-.3-.6-.6-.9-.8-.1 0-.1-.1-.2-.1-.3-.3-.7-.5-1-.7l1.4-.8c.4.2.7.4 1 .7.1 0 .1.1.2.1.3.3.6.5.9.8 0 0 .1 0 .1.1l.1.1c.1.2.3.3.4.5 0 .1.1.1.1.2l.6.6c0 .1.1.1.1.2.1.1.1.2.2.2 0 .1.1.1.1.2.1.1.1.2.2.3 0 .1.1.1.1.2 0 0 0 .1.1.1l.3.6s0 .1.1.1a.76.76 0 0 1 .2.4c0 .1.1.1.1.2s.1.1.1.2.1.1.1.2c.1.2.1.3.2.5v.1c.1.2.2.4.2.6v.1c0 .1.1.1.1.2s.1.2.1.3 0 .2.1.2c0 .1.1.2.1.3s0 .1.1.2c0 .1 0 .2.1.3 0 .1.1.2.1.3v.3c0 .2.1.4.1.5v.2c0 .4.1.8.1 1.2l-1.4.8c0-.4 0-.8-.1-1.2.2 0 .2-.1.2-.2z"></path><use xlink:href="#H" x="-110.7" y="62.8" class="H"></use><path class="R" d="M304.1 195l26-15.1v-12.8l-26 15.1z"></path><path class="S" d="M332.3 211.3l26-15.1-28.2-16.3-26 15.1z"></path><path class="R" d="M334.1 234.8l26-15.1.1-37.5-26 15.1z"></path><path class="S" d="M334.2 197.3l26-15.1-31.8-18.3-26 15.1z"></path><path class="T" d="M332.3 211.3v-12.8l-28.2-16.3V195l28.2 16.3zM302.4 179l31.8 18.4-.1 37.5-31.8-18.4.1-37.5z"></path><use xlink:href="#B" x="107.9" y="62.3" class="E"></use><path class="F" d="M361.8 236c3.1-1.8 5.7-.3 5.7 3.2 0 3.6-2.5 8-5.7 9.8-3.1 1.8-5.7.4-5.7-3.2s2.6-8 5.7-9.8z"></path><path class="G" d="M362 237.7c2.3-1.3 4.2-.3 4.2 2.4s-1.9 6-4.2 7.3-4.2.3-4.2-2.4 1.9-6 4.2-7.3z"></path><path class="H" d="M364 217.3v18l-2.3-1.2v-16.8z"></path><use xlink:href="#D" x="63.1" y="37.7" class="G"></use><use xlink:href="#B" x="18.8" y="114.3" class="I"></use><path class="J" d="M272.7 288c3.1-1.8 5.7-.3 5.7 3.2 0 3.6-2.5 8-5.7 9.8-3.1 1.8-5.7.4-5.7-3.2s2.5-8 5.7-9.8z"></path><use xlink:href="#C" x="107.9" y="62.3" class="G"></use><path class="H" d="M274.9 273.6l-.1 13.7-2.3-1.3.1-12.4z"></path><path class="G" d="M278 273.6l.1 14c0 6.2-1.4 9.7-4.5 11.3l-2.8-1.4-1.1-4c2.5-5.6 5.1-4.1 5-8.3l.1-11.6h3.2z"></path><use xlink:href="#B" x="152.7" y="86.9" class="I"></use><path class="J" d="M406.6 260.6c3.1-1.8 5.7-.3 5.7 3.2 0 3.6-2.5 8-5.7 9.8-3.1 1.8-5.7.4-5.7-3.2.1-3.6 2.6-8 5.7-9.8z"></path><path class="G" d="M406.9 262.3c2.3-1.3 4.2-.3 4.2 2.4s-1.9 5.9-4.2 7.3c-2.3 1.3-4.2.3-4.2-2.4-.1-2.7 1.8-6 4.2-7.3z"></path><path class="H" d="M408.8 241.9v18l-2.3-1.2v-16.8z"></path><use xlink:href="#D" x="107.9" y="62.3" class="G"></use><use xlink:href="#B" x="63.6" y="138.8" class="I"></use><path class="J" d="M317.5 312.5c3.1-1.8 5.7-.3 5.7 3.2 0 3.6-2.5 8-5.7 9.8-3.1 1.8-5.7.4-5.7-3.2 0-3.5 2.6-7.9 5.7-9.8z"></path><path class="G" d="M317.7 314.2c2.3-1.3 4.2-.3 4.2 2.4s-1.9 5.9-4.2 7.3c-2.3 1.3-4.2.3-4.2-2.4s1.9-5.9 4.2-7.3z"></path><path class="H" d="M319.8 270.3l-.1 41.6-2.3-1.3.1-41.7z"></path><path class="G" d="M319.8 270.3l2.8-1.7.4 43.6c0 6.2-1.4 9.7-4.5 11.3l-2.8-1.4-1.1-4c2.5-5.6 5.1-4.1 5-8.3l.2-39.5z"></path><path class="H" d="M255.2 275.7v3.6l46.8 27.2v-3.6z"></path><path class="G" d="M302 302.9v3.6l112.2-64.6v-3.6z"></path><path class="K" d="M255.2 275.7l46.8 27.2 112.2-64.6-46.8-27.2z"></path><use xlink:href="#E" x="107.9" y="62.3" class="G"></use><use xlink:href="#F" x="107.9" y="62.3" class="K"></use><path class="G" d="M411.4 239.9l2.7-1.6.1-24.6-2.7 1.6z"></path><path class="K" d="M376 181.8l29.7 17.1-2.7 1.6-29.7-17.1z"></path><path class="K" d="M411.4 214.1c0-.2 0-.4-.1-.6 0-.2-.1-.5-.1-.7s-.1-.3-.1-.5c0-.1-.1-.3-.1-.4-.1-.2-.1-.4-.2-.6 0-.1-.1-.2-.1-.4-.1-.2-.1-.5-.2-.7 0-.1-.1-.2-.1-.3-.1-.3-.2-.6-.4-.9v-.1c-.1-.3-.3-.6-.4-.8 0-.1-.1-.2-.1-.3-.1-.3-.3-.5-.4-.8 0-.1-.1-.1-.1-.2-.2-.3-.4-.6-.5-.9-.1-.1-.1-.2-.2-.2-.1-.2-.3-.4-.4-.6-.1-.1-.2-.2-.2-.3-.1-.2-.3-.3-.4-.5-.1-.1-.2-.3-.3-.4s-.2-.2-.3-.4l-1.3-1.3c-.2-.1-.3-.3-.5-.4-.1-.1-.2-.2-.3-.2-.2-.1-.4-.3-.5-.4s-.2-.1-.3-.2c-.3-.2-.5-.4-.8-.5l2.7-1.6.8.5c.1.1.2.1.3.2.2.1.4.3.5.4s.2.2.3.2c.2.1.3.3.5.4l1.5 1.5c.1.1.1.1.1.2.1.1.2.3.3.4s.1.2.2.3.1.2.2.2c.1.1.2.2.2.3l.2.2c.1.1.2.3.3.4s.1.2.2.2c0 0 0 .1.1.1.2.2.3.5.4.7v.1c0 .1.1.1.1.2.1.2.2.3.3.5 0 .1.1.2.1.3s.1.2.1.3.1.1.1.2l.3.6v.1l.3.8c0 .1 0 .1.1.1 0 .1.1.2.1.3s.1.3.1.4.1.2.1.3.1.2.1.3 0 .1.1.2c0 .1.1.3.1.4s.1.3.1.4v.2c0 .1 0 .2.1.3 0 .2.1.5.1.7v1.8l-2.7 1.6v-1.1z"></path><use xlink:href="#G" x="107.9" y="62.3" class="H"></use><path class="K" d="M376.3 192.3c-.2-.1-.3-.1-.5-.2-.1 0-.2-.1-.3-.1s-.2 0-.3-.1c-.1 0-.2 0-.4-.1h-.7c-.2 0-.3 0-.5.1h-.1c-.1 0-.2.1-.4.1h-.1c-.1.1-.3.1-.4.2l1.4-.8c.1-.1.2-.1.3-.2h.2c.1 0 .1 0 .2-.1h1.9c.1 0 .2 0 .3.1h.2c.2 0 .3.1.5.2.1 0 .1 0 .2.1h.1c.3.1.5.2.8.4l-1.4.8c-.3-.2-.6-.3-.8-.4 0 .1-.1 0-.2 0z"></path><path class="G" d="M406.9 217.4l1.3-.8v19l-1.4.7z"></path><path class="K" d="M378.8 192l22.9 13.2-1.4.8-22.9-13.2zm28 24c0-.2-.1-.4-.1-.5s0-.2-.1-.4c0-.1-.1-.2-.1-.3 0-.2-.1-.3-.1-.5 0-.1-.1-.2-.1-.3-.1-.2-.1-.4-.2-.5 0-.1 0-.1-.1-.2-.1-.2-.2-.5-.3-.7v-.1l-.3-.6c0-.1-.1-.1-.1-.2l-.3-.6s0-.1-.1-.1c-.1-.2-.3-.5-.4-.7 0-.1-.1-.1-.1-.2-.1-.2-.2-.3-.3-.5-.1-.1-.1-.2-.2-.2-.1-.1-.2-.3-.3-.4l-.3-.3c-.1-.1-.2-.2-.2-.3-.1-.2-.3-.3-.4-.5l-.2-.2c-.3-.3-.6-.6-.9-.8-.1 0-.1-.1-.2-.1-.3-.3-.7-.5-1-.7l1.4-.8c.4.2.7.4 1 .7.1 0 .1.1.2.1.3.3.6.5.9.8 0 0 .1 0 .1.1l.1.1c.2.2.3.3.4.5 0 .1.1.1.1.1l.6.6c0 .1.1.1.1.2.1.1.1.2.2.2 0 .1.1.1.1.2.1.1.1.2.2.3 0 .1.1.1.1.2 0 0 0 .1.1.1l.3.6s0 .1.1.1a.76.76 0 0 1 .2.4c0 .1.1.1.1.2s.1.1.1.2.1.1.1.2c.1.2.1.3.2.5v.1c.1.2.2.4.2.6v.1c0 .1.1.1.1.2s.1.2.1.3 0 .2.1.2c0 .1.1.2.1.3s0 .1.1.2c0 .1 0 .2.1.3 0 .1.1.2.1.3v.3c0 .2.1.4.1.5v.2c0 .4.1.8.1 1.2l-1.4.8c0-.4 0-.8-.1-1.2.1.1.1 0 .1-.1z"></path><use xlink:href="#H" x="107.9" y="62.3" class="H"></use><path class="L" d="M405.9 240.8c-.2.1-.4.3-.6.4-.1.1-.2.2-.3.2s-.1.1-.2.1l-2.2-2.8 2.2-5.1c.2-.1.4-.2.5-.3.2-.1.4-.3.6-.4.1-.1.3-.2.4-.3.2-.1.3-.3.5-.4l.6-.6c.2-.2.3-.4.5-.6.1-.2.3-.4.4-.5s.1-.2.2-.3c.1-.2.1-.3.2-.5 0-.1.1-.2.1-.3s.1-.2.1-.4c0-.1.1-.3.1-.4v-.8 8.7c0 .1-.1.2-.1.3s-.1.2-.1.4c0 .1-.1.2-.1.3-.1.2-.1.3-.2.5v.1c0 .1-.1.1-.1.2-.1.2-.2.4-.4.5 0 0 0 .1-.1.1-.1.2-.3.3-.4.5s-.3.3-.5.5l-.1.1c-.2.1-.3.3-.5.4-.2.2-.3.3-.5.4z"></path><path class="L" d="M312.2 287.5l92.7-53.8-.1 7.9-92.6 53.8zm-51.1-21.2c0 .7.1 1.3.5 1.9.5 1 1.4 2 2.8 2.8l29.6 17.1v7.9l-29.6-17.1c-2.2-1.3-3.3-3-3.3-4.7v-7.9z"></path><path class="L" d="M295.6 296.8c-.1 0-.1-.1-.2-.1-.5-.2-1-.4-1.4-.7l-1.4-4.5 1.5-3.4c.4.3.9.5 1.4.7.1 0 .2.1.3.1l1 .3c.1 0 .2.1.3.1.3.1.6.2.9.2.1 0 .2 0 .2.1.2 0 .3.1.5.1s.4.1.7.1c.1 0 .3 0 .5.1.2 0 .5.1.7.1h2.5c.5 0 .9 0 1.4-.1h.3c.4 0 .9-.1 1.3-.2.2 0 .3-.1.4-.1.3-.1.5-.1.8-.2.2 0 .3-.1.5-.1.3-.1.6-.2.9-.2.1 0 .3-.1.4-.1l1.5-.6c.1 0 .2-.1.3-.2.5-.2 1-.5 1.4-.7l1.8 3.5-1.8 4.4c-.5.3-.9.5-1.4.7-.1.1-.2.1-.3.2l-1.5.6c-.1 0-.2.1-.3.1-.3.1-.6.2-.9.2-.2 0-.3.1-.5.1-.3.1-.5.1-.8.2h-.4c-.4.1-.9.1-1.3.2h-.3c-.5 0-.9.1-1.4.1h-2.5c-.2 0-.5-.1-.7-.1h-.4c-.2 0-.4-.1-.7-.1-.2 0-.3 0-.5-.1-.1 0-.2 0-.2-.1-.3-.1-.6-.1-.9-.2h-.1c-.1 0-.1 0-.2-.1l-1-.3h-.4z"></path><path class="F" d="M265.4 260.5l92.7-53.8c5.3-3.1 13.4-3.4 18.2-.6l29.6 17.1c4.7 2.7 4.3 7.4-1 10.5l-92.7 53.8c-5.3 3.1-13.4 3.4-18.2.6L264.4 271c-4.8-2.7-4.3-7.4 1-10.5z"></path><path class="M" d="M404.5 220.5L381.2 233l-30.6-17.7s13.8-12.5 24.4-12.4c16.4.1 29.5 17.6 29.5 17.6z"></path><use xlink:href="#I" x="107.9" y="62.3" class="N"></use><use xlink:href="#P" fill="#f5c98a" class="AQ"></use><use xlink:href="#J" x="107.9" y="62.3" class="N"></use><use xlink:href="#K" x="107.9" y="62.3" class="N"></use><use xlink:href="#P" x="4.6" y="4.3" class="N"></use><path d="M331.8 234.4c-11.1 2.4-21.5 10.6-26.5 13.9-.7.5-1.5 1-2.1 1.3-.4.3-.7.5-1 .8l-21.9 17.9c-1.4 2 5.5 7.7 10.5 8.2 6.2-5.3 17.1-7.9 21.4-10.9 4-2.7 5.4-5.1 6.3-6.1 6.1-1.4 13.9-3.6 19.7-5.5 4.3-1.5 8-3.9 9.9-8.7.2-2.7-11.9-13.2-16.3-10.9z" fill="#fcf1ea" class="AQ"></path><path class="N" d="M366.4 231.6c-.6.4-9.7 10.1-11 12.3-2.5 3 1.5 6.4 4.7 4.7 1.1-.6 4-3 6.8-5 4.1-3 7.3-4.5 8.1-5.6 1.1-1.5 2-6.3.9-7.2-2.4-1.9-7.3-.6-9.5.8zm-21.5 20.5c-2 1.7-2 2.8-5.1 2.2-6.2-.4-7.9 4.6-10.4 7.6-.7.9-.9 1.7-.4 2.4 1.1 1.3 3.2-.5 4.8-1.6 2.2-1.5 2.6-1.4 6.6-2 1.3-.4 2.6-1.5 3.9-2.9l3.1-1.8-2.5-3.9z"></path><use xlink:href="#N" x="102.6" y="59.1" class="N"></use><path class="O" d="M372.6 219.4c-1.4 1.1-2.2 2.5-3.6 3.7-3.6 1-7.8-2.3-6.3-4.2l2.6-3.3 7.3 3.8z"></path><path class="N" d="M369.6 207c-1.5 1.8-2.9 1.5-4.6 5.2-.5 1.1-1.1 3.5-1 3.9.1.5.6 1.9 1 2.3.9.6 4.2 1.4 5.1 1.7 2 .6 2.3.1 4.1-1.3l2.8-1.7 3.8-5.1c-2-3.4-3.9-6.2-5.6-6.9s-2.5-1.6-5.6 1.9z"></path><use xlink:href="#L" x="107.9" y="62.3" class="AQ"></use><path class="E" d="M335 221c-11.6 7.3-45.2 26.9-64.7 40.3-8.1 5.6-13.9 10.9-4.9 15.8l17.8 10.4c5.9 3.3 9.4 6.9 23.2-1 19.2-11 44.6-25.3 59.2-35.4 14.8-10.3 1.1-25.5-10.9-31.7-6.4-3.4-13.9-2.1-19.7 1.6z"></path><use xlink:href="#M" x="107.9" y="62.3" class="Q"></use><use xlink:href="#E" x="-1.5" y="125.1" class="G"></use><path class="K" d="M262.5 245.6c-.2-.1-.4-.1-.6-.2-.1 0-.3-.1-.4-.1s-.2-.1-.4-.1-.3-.1-.5-.1h-1c-.2 0-.4 0-.6.1h-.2c-.2 0-.3.1-.5.1 0 0-.1 0-.1.1l-.6.3 2.7-1.6c.1-.1.3-.1.4-.2h.1s.1 0 .1-.1c.1 0 .1-.1.2-.1s.2 0 .2-.1h.3c.2 0 .3-.1.5-.1h1.3c.1 0 .2 0 .4.1h.2c.1 0 .1 0 .2.1.2.1.4.1.6.2.1 0 .1 0 .2.1 0 0 .1 0 .1.1l1.1.5-2.7 1.6c-.4-.2-.7-.4-1.1-.5.3 0 .2-.1.1-.1z"></path><path class="G" d="M302 302.7l2.7-1.6.1-24.5-2.7 1.6z"></path><path class="K" d="M266.6 244.7l29.7 17.1-2.7 1.6-29.7-17.2z"></path><path class="K" d="M302 276.9c0-.2 0-.4-.1-.6 0-.2-.1-.5-.1-.7s-.1-.3-.1-.5c0-.1-.1-.3-.1-.4-.1-.2-.1-.4-.2-.6 0-.1-.1-.2-.1-.4-.1-.2-.1-.5-.2-.7 0-.1-.1-.2-.1-.3-.1-.3-.2-.6-.4-.9v-.1c-.1-.3-.3-.6-.4-.8 0-.1-.1-.2-.1-.3-.1-.3-.3-.5-.4-.8 0-.1-.1-.1-.1-.2-.2-.3-.4-.6-.5-.9-.1-.1-.1-.2-.2-.2-.1-.2-.3-.4-.4-.6-.1-.1-.2-.2-.2-.3-.1-.2-.3-.3-.4-.5-.1-.1-.2-.3-.3-.4s-.2-.2-.3-.4L296 265c-.2-.1-.3-.3-.5-.4-.1-.1-.2-.2-.3-.2-.2-.1-.4-.3-.5-.4s-.2-.1-.3-.2c-.3-.2-.5-.4-.8-.5l2.7-1.6.8.5c.1.1.2.1.3.2.2.1.4.3.5.4s.2.2.3.2c.2.1.3.3.5.4l1.5 1.5c.1.1.1.1.1.2.1.1.2.3.3.4s.1.2.2.3.1.2.2.2c.1.1.2.2.2.3l.2.2c.1.1.2.3.3.4s.1.2.2.2c0 0 0 .1.1.1.2.2.3.5.4.7v.1c0 .1.1.1.1.2.1.2.2.3.3.5 0 .1.1.2.1.3s.1.2.1.3.1.1.1.2l.3.6v.1l.3.8s0 .1.1.1c0 .1.1.2.1.3s.1.3.1.4.1.2.1.3.1.2.1.4c0 .1 0 .1.1.2 0 .1.1.3.1.4s.1.3.1.4v.2c0 .1 0 .2.1.3 0 .2.1.5.1.7v1.8l-2.7 1.6v-1.2z"></path><use xlink:href="#G" x="-1.5" y="125.1" class="H"></use><use xlink:href="#O" x="107.9" y="62.3" class="K"></use><path class="G" d="M296.2 280.2l1.3-.8v18.9l-1.4.8z"></path><path class="K" d="M268.1 254.8l22.8 13.2-1.3.8-22.9-13.2zm28 23.9c0-.2-.1-.3-.1-.5 0-.1 0-.2-.1-.4 0-.1-.1-.2-.1-.3 0-.2-.1-.3-.1-.5 0-.1-.1-.2-.1-.3-.1-.2-.1-.4-.2-.5 0-.1-.1-.1-.1-.2-.1-.2-.2-.5-.3-.7v-.1l-.3-.6c0-.1-.1-.1-.1-.2l-.3-.6s0-.1-.1-.1c-.1-.2-.3-.5-.4-.7 0-.1-.1-.1-.1-.2-.1-.2-.2-.3-.3-.5-.1-.1-.1-.2-.2-.2-.1-.1-.2-.3-.3-.4l-.6-.6c-.1-.2-.3-.3-.4-.5l-.2-.2c-.3-.3-.6-.6-.9-.8-.1 0-.1-.1-.2-.1-.3-.3-.7-.5-1-.7l1.4-.8c.4.2.7.4 1 .7.1 0 .1.1.2.1.3.3.6.5.9.8 0 0 .1 0 .1.1s.1.1.1.2c.1.2.3.3.4.5 0 .1.1.1.1.2l.6.6c0 .1.1.1.1.2.1.1.1.2.2.2 0 .1.1.1.1.2.1.1.1.2.2.3 0 .1.1.1.1.2 0 0 0 .1.1.1l.3.6s0 .1.1.1a.76.76 0 0 1 .2.4c0 .1.1.1.1.2s.1.1.1.2.1.1.1.2c.1.2.1.3.2.5v.1c.1.2.2.4.2.6v.1c0 .1.1.1.1.2s.1.2.1.3 0 .2.1.2c0 .1.1.2.1.3s0 .1.1.2c0 .1 0 .2.1.3 0 .1.1.2.1.3v.3c0 .2.1.4.1.5v.2c0 .4.1.8.1 1.2l-1.4.8c0-.4 0-.8-.1-1.2.2-.1.2-.2.2-.3z"></path><use xlink:href="#H" x="-2.8" y="125.1" class="H"></use><path d="M77.2 272.1l-3.1 16.8c-.4 1.5-1.6 3-3.6 4.2-5 2.9-13 2.9-17.9 0-2.3-1.3-3.5-3-3.7-4.7l-3-16.2c.3 10.3 31.3 4.5 31.3-.1z" fill="#7d7d7f" class="AQ"></path><path class="Y" d="M50.5 265.7c6.1-3.5 16-3.5 22.1 0s6.1 9.3-.1 12.8c-3.1 1.8-7.1 2.7-11.1 2.7s-8-.9-11.1-2.7c-6-3.5-6-9.2.2-12.8z"></path><path class="Z" d="M53 267.2c4.7-2.7 12.4-2.7 17.1 0s4.7 7.2-.1 9.9c-4.7 2.7-12.4 2.7-17.1 0-4.7-2.8-4.7-7.2.1-9.9z"></path><path d="M59.9 228.6c0 .1 0 .1 0 0v.3l.1.1h.2s.1.1.2.1h2c.1 0 .1 0 .2-.1h.1s.1 0 .1-.1c.3-.2.5-.4.5-.7v43.4c0 .2-.2.5-.5.7 0 0-.1 0-.1.1h-.1c-.1 0-.1 0-.2.1h-1.3c-.1 0-.1 0-.2-.1h-.2l-.1-.1v-43.7h-.7z" fill="#57260d" class="AQ"></path><path class="Y" d="M60.4 227.9c.6-.4 1.6-.4 2.3 0 .6.4.6.9 0 1.3s-1.6.4-2.3 0c-.6-.4-.6-.9 0-1.3z"></path><g class="AQ"><path d="M61.5 208.4c-11 0-19.9 8.1-19.9 18.1s8.9 18.1 19.9 18.1 19.9-8.1 19.9-18.1-8.9-18.1-19.9-18.1z" fill="#669839"></path><path d="M41.7 224.7c-.1.6-.1 1.2-.1 1.8 0 10 8.9 18.1 19.9 18.1s19.9-8.1 19.9-18.1c0-.6 0-1.2-.1-1.8-4 5.4-11.3 9-19.8 9-8.4 0-15.8-3.6-19.8-9z" fill="#5e8838"></path></g><path class="S" d="M254.5 78.8l-9.5-9.1-9.3-1.8-63.8 36.8.1 3.1 16 9.4z"></path><path class="R" d="M254.4 59.4l-16-9.3-2.7 1.5v16.3l18.8 10.9z"></path><path class="T" d="M188 117.2l66.5-38.4-.1-19.4L188 97.8v19.4zm69.2-62.6l.1 25.8-72 41.6-.1-25.8 72-41.6z"></path><use xlink:href="#Q" class="d"></use><path class="e" d="M218.9 71.2c.1 0 .1-.1.1-.1s0-.1.1-.1l19.7 11.5h-.1s-.1 0-.1.1h-.1l-19.7-11.5c0 .2 0 .1.1.1zm20 9.5c-.1 0-.2.1-.4.1-.1.1-.3.1-.4.2l-19.7-11.5c.1 0 .1-.1.2-.1s.1-.1.2-.1h.2s.1 0 .1-.1h1s.1 0 .1.1l19.7 11.5c-.1 0-.1-.1-.2-.1h-.3c-.3-.1-.4 0-.5 0zm-19.1-13.8c.1 0 .1-.1.1-.1h1c.1 0 .1 0 .2.1l19.7 11.5c-.1 0-.2-.1-.2-.1h-.3c-.1 0-.2 0-.3.1-.1 0-.2.1-.3.1l-19.9-11.6z"></path><path class="d" d="M219.2 72.8l19.7 11.5-7 4-19.8-11.4z"></path><path class="d" d="M211.8 76.9h.1s.1 0 .2-.1l19.7 11.5-20-11.4z"></path><path class="e" d="M212 75.9c0-.1 0-.1 0 0v-.1s0-.1.1-.1v-.1l3.2-1.8 2.8-1.6 19.7 11.5-2.8 1.6-3.2 1.8c-.1.1-.2.1-.2.2-.1.1-.1.2-.2.3s-.1.2-.1.3-.1.2-.1.3v.2c0 .1.1.1.1.1L211.6 77s-.1 0-.1-.1l.5-1z"></path><path class="M" d="M218.3 69.6L238 81.1l-6.2 3.6L212 73.2z"></path><path class="d" d="M210.3 76.8v-1.9s0-.1.1-.1c0-.1.1-.1.1-.2l.1-.1v-.2l.1-.1s0-.1.1-.1l.5-.5h.1l.2-.2h.3l19.7 11.5c-.1.1-.3.2-.4.3l-.3.3c-.1.1-.2.2-.3.4v.1a.76.76 0 0 0-.2.4c-.1.2-.2.3-.2.5-.1.2-.1.3-.1.5s-.1.3-.1.5v1c0 .1 0 .3.1.4 0 .1.1.2.1.4.1.1.1.2.2.3s.2.1.2.2L211 78.6c-.1 0-.2-.1-.2-.2 0 0-.1-.1-.1-.2 0 0 0-.1-.1-.1 0-.1 0-.1-.1-.2 0 0 0-.1-.1-.2v-.8c-.1 0-.1 0-.1-.1z"></path><path class="M" d="M212.1 71.3l7.7-4.4 19.7 11.5-1.2.7-6.5 3.7z"></path><path class="e" d="M211.5 72.5c0-.1 0-.1 0 0v-.1s0-.1.1-.1v-.1l19.7 11.5c-.1.1-.2.1-.2.2-.1.1-.1.2-.2.3s-.1.2-.1.3-.1.2-.1.3v.4l.1.1L211.7 73l-.1-.1c-.1-.3-.1-.3-.1-.4z"></path><path class="f" d="M230.5 86.2c.3-.6.7-1.1 1.3-1.5l6.3-3.6c.7-.4 1.1-.5 1.5-.4s.6.5.5 1.3c0 .4-.1.9-.4 1.4s-.7.7-1.1.9c0 0-.1 0-.1.1l-4.9 2.8c-.4.2-.7.4-1 .6-.4.2-.6.1-.6-.3s.3-1 .6-1.2l3.2-1.8 2.8-1.6c.7-.4.4-.6-.2-.2l-6.4 3.7-.3.3c-.3.6-.2 1.4 0 1.7.1.1.2.1.4 0l7.1-4.1c.1-.1.3-.1.4-.2.3-.2.5-.4.7-.9.5-1.1.5-2.4 0-3-.3-.3-.9 0-1.4.3-.1 0-.1.1-.2.1l-6.6 3.8c-.4.2-.7 0-.7-.4s.3-1 .6-1.2l7.6-4.4c.7-.4 1.3-.2 1.6.3.7 1 .7 3-.1 4.8-.4.9-.9 1.6-1.6 2l-7.6 4.4c-.6.3-1.1.3-1.4-.1-.6-.6-.7-2.3 0-3.6z"></path><path class="R" d="M225.1 71.6l-12.9-6.4-4.9 2.8v18.3l17.4 9.8z"></path><path class="R" d="M224.6 71.1v25l2.5-1.5V69.7z"></path><use xlink:href="#Q" x="-38.4" y="22.8" class="d"></use><path class="e" d="M180.5 94c.1 0 .1-.1.1-.1l.1-.1 19.7 11.5h-.1s-.1 0-.1.1h-.1l-19.7-11.5c-.1.2 0 .2.1.1zm20 9.5c-.1 0-.2.1-.4.2-.1.1-.3.1-.4.2L180 92.4c.1 0 .1-.1.2-.1s.1-.1.2-.1h.2s.1 0 .1-.1h1s.1 0 .1.1l19.7 11.5c-.1 0-.1-.1-.2-.1h-.3c-.3-.1-.4-.1-.5-.1zm-19.1-13.7c0-.1 0-.1 0 0 .1 0 .1-.1.1-.1h1c.1 0 .1 0 .2.1l19.7 11.5c-.1 0-.2-.1-.2-.1h-.3c-.1 0-.2 0-.3.1-.1 0-.2.1-.3.1l-19.9-11.6z"></path><path class="d" d="M180.8 95.6l19.7 11.5-7.1 4.1-19.7-11.5z"></path><path class="d" d="M173.4 99.7h.1c.1 0 .1 0 .2-.1l19.7 11.5-20-11.4z"></path><path class="e" d="M173.6 98.7v-.1s0-.1.1-.1l3.2-1.8 2.8-1.6 19.7 11.5-2.8 1.6-3.2 1.8c-.1.1-.2.1-.2.2-.1.1-.1.2-.2.3s-.1.2-.1.3v.5c0 .1.1.1.1.1l-19.7-11.5s-.1 0-.1-.1l.4-1.1c0 .1 0 .1 0 0z"></path><path class="M" d="M179.9 92.5l19.7 11.4-6.2 3.6-19.8-11.4z"></path><path class="d" d="M171.9 99.6v-1.8s0-.1.1-.1c0-.1.1-.1.1-.2l.1-.1v-.2l.1-.1s0-.1.1-.1l.5-.5h.1l.3-.3h.2l19.7 11.5c-.1.1-.3.2-.4.3l-.3.3c-.1.1-.2.2-.3.4v.1a.76.76 0 0 0-.2.4c-.1.2-.2.3-.2.5-.1.2-.1.3-.1.5s-.1.3-.1.5v1c0 .1 0 .3.1.4 0 .1.1.2.1.4.1.1.1.2.2.3s.2.1.2.2l-19.7-11.5c-.1 0-.2-.1-.2-.2 0 0-.1-.1-.1-.2 0 0 0-.1-.1-.1 0-.1 0-.1-.1-.2 0 0 0-.1-.1-.2v-1z"></path><path class="M" d="M173.7 94.2l7.6-4.4 19.8 11.4-1.2.7h-.1l-6.4 3.7z"></path><path class="e" d="M173.1 95.3v-.1s0-.1.1-.1V95l19.7 11.5c-.1.1-.2.1-.2.2-.1.1-.1.2-.2.3s-.1.2-.1.3-.1.2-.1.3v.4l.1.1-19.7-11.5-.1-.1.5-1.2c0 .1 0 .1 0 0 0 .1 0 0 0 0z"></path><path class="f" d="M192.1 109c.3-.6.7-1.2 1.3-1.5l6.3-3.6c.7-.4 1.1-.5 1.5-.4s.6.5.5 1.3c0 .4-.1.9-.4 1.3-.3.5-.7.7-1.1.9 0 0-.1 0-.1.1l-4.9 2.8c-.4.2-.7.4-1 .6-.4.2-.6.1-.6-.3s.3-1 .6-1.2l3.2-1.8 2.8-1.6c.7-.4.4-.6-.2-.2l-6.4 3.7-.3.3c-.3.6-.2 1.4 0 1.7.1.1.2.1.4 0l7.1-4.1c.1-.1.3-.1.4-.2.3-.2.5-.4.7-.9.5-1.1.5-2.4 0-3-.3-.3-.9 0-1.4.3-.1 0-.1.1-.2.1l-6.6 3.8c-.4.2-.7 0-.7-.4s.3-1 .6-1.2l7.6-4.4c.7-.4 1.3-.2 1.6.3.7 1 .7 3-.1 4.8-.4.9-.9 1.6-1.6 2l-7.6 4.4c-.6.3-1.1.3-1.4-.1-.7-.5-.7-2.2 0-3.5z"></path><path class="S" d="M257.2 54.6l-13.3-7.7-72 41.6v.7l4.9 3.6 8.4 3.4z"></path><path class="R" d="M185.2 96.2l-13.3-7.7.1 25.8 13.2 7.7z"></path><path class="T" d="M254.4 59.4L188 97.8V117l-2.5 4.8-.3.2V96.2l72-41.6z"></path><use xlink:href="#R" class="O"></use><path class="g" d="M219.5 290c-1-.5-2-1.7-3.8-1.5-1.5 2.1.4 4.2.4 6.8l1.8 1.1 1.5-1-.2-2c.6.5 1.9 1 2.6.9.8-.3 2.1-1.2 3.2-1.7 2.7-1.4 2.8-3.8 1.3-4.7-.4-.3-1.4-.2-2.7.4.8 0 1.1.3 1.1.6 0 .5-.4 1.1-.8 1.3-2.6 1.1-3.4.2-4.4-.2z"></path><path d="M219.1 293.4c.5.2 2.4 1 2.7.9.5-.2 1.2-.5 1.8-1l-1.4.6c-1.4-.6-2.1-.8-3.2-1.9l.1 1.4z" fill="#031626" class="AQ"></path><path class="T" d="M218.1 177.3l-.1 1.4c3.7-.8 9.5.2 6.1 5.2l1.2.8c2.2-1.4 2.8-3.1 2.4-6.3-.2-1.8-.1-2.3-1.2-2.7l-4.2-.8c-1.1-.2-1.2-.2-1.8.8-.5.8-.8 1-2.4 1.6z"></path><path d="M227.3 191.5l13 6.5-9.5 16.5-13-6.6z" fill="#edfbfc" class="AQ"></path><path class="j" d="M237.8 203.6c.5.5.7.8.6 1.3l-2.4 6.2-2.2-.5-.1-7.4c0-.8.4-1.2.8-1.5.3-.2.5-.5 1-.1l2.3 2z"></path><path class="O" d="M234.2 201.9l.6.7.8.7.2.4-.1.9-.6 1.1-.8.8-.6-1.6-.1-2.4z"></path><path d="M236.2 203.3l-3-1.5-.7.1.3.7 3.1 1.5c.3-.1.5-.6.3-.8z" fill="#05345e" class="AQ"></path><path class="j" d="M233.5 202.2c-.2 1.6-.6 2.8-.6 3.8 0 .8.8 2.4 1.1 2.4l1.2-.1c.1-1.8-.3-2.4-.8-3.8.1-1.5.3-1.9-.9-2.3z"></path><path class="S" d="M233.5 208.3c2.2.4 1.4.5 3.6.2l-1.6 9.3c-.8 3.7-2.1 4.9-3.8 4.6-1.6-.3-2.6-1.8-2.2-5.3l4-8.8z"></path><path class="O" d="M219.2 225h1l-.2 9 1.4 20.6c.1 3.3-.7 5-.6 7.5.3 7-1.3 14.8-1.4 22.1l.1 2.2-3.3-.8c-1.3-6.7-3.6-15.7-3.3-22.4.1-2.4.6-4.2.7-5.7 0-5.1-.4-6.1-1.3-11.2-1.7-10.1-.5-2.9-.2-6.9.3-3.1.8-7 3.3-14.7l3.8.3z"></path><path class="R" d="M231.5 203.3c.2.9.1 1.8-.8 2.2-1.7 1-8.3-1.4-13.7-4.5-4.9-2.8-5.1-4.5-4.4-5.5.9-1.2 4.4-1.8 7.9-1.1 4 1 10 4.7 11 8.9z"></path><path class="j" d="M226.5 229.2h1l-.2 9 1.4 20.6c.1 3.3-.7 5-.6 7.5.3 7-1.3 14.8-1.4 22.1l.1 2.2-3.3-.8c-1.3-6.6-3.6-15.7-3.3-22.4.1-2.4.6-4.2.7-5.7 0-5.1-.4-6.1-1.3-11.2-1.7-10.1-.5-2.9-.2-6.9.3-3.1.8-7 3.3-14.7l3.8.3z"></path><path class="l" d="M213 221.5c-1.2 1.6-1.9 2.1-2.5 5.2-1.1 5.4 0 16.6 1.7 26.2 0 5.6 16.5 10.3 17 5.1l.1-.1c1.2-20.6.4-26.4-1-30.9-.8-2.5-2-5.1-1.9-6.2-2.9 2.8-9.2 3.4-13.4.7z"></path><path class="R" d="M212.7 221.5c-1.3 1.6-2 2.1-2.7 5.2-.8 3.3-.7 7.7.1 13.7.9 1.1 2.5 3.9 4.9 5 .2.1.1-10.9.2-10.8.2.1.6 11.1.8 11.2 4.9 1.9 10.8 2.2 13.9 1.1.5-11.9-.1-16.3-1.2-19.9-.8-2.5-2-5.1-1.9-6.2-3.1 2.8-9.7 3.4-14.1.7z"></path><path class="R" d="M226.7 199.6c7.2 3.4 2.2 10.1 1.5 21.3-.2 2.5.8 6.2 1.3 9.8.1 1.4.1 2.6-1.2 3.3-2.8 1.6-8.5.9-13.4-1.9-4.4-2.5-5.3-5.4-4.3-7.5 1-2.5 3.7-5.9 2.9-10.4-.4-3.5-5.2-19.3.4-19.1 1.5 0 10.7 3.5 12.8 4.5z"></path><path class="O" d="M224.6 191.4c-.5 1.1-.4 3.1-.5 5.6-2.2 3.4-7.4.5-7.2-.5l.2-4 7.5-1.1z"></path><path class="j" d="M226.2 180.2c.8 1.4 1.8 1.6 1.9 3.5 0 1.5.2 9.6-2.4 11.4-.9.6-3.4-.8-4.9-2-1-.9-.7-2.5-1.1-3.1l2.1-9.3 4.4-.5z"></path><path class="Z" d="M213.5 193.3c2.2 3.8 7.1 6 12 5.5.1 0-.5-9.4 2.7-13.5 1.8-5.7-4.8-9.3-9.5-8.6-5.9.9-7.9 11.9-5.2 16.6z"></path><path class="S" d="M232.3 205.4c-.8-4.3-2.8-5.3-4.6-5.1-2.2.2-3.7 2.3-3.2 5.2.7 3.9 2.4 9.5 3.4 13.6 1 3.7 2.9 4.3 4.2 3.8 1.7-.7 2.4-1.3 2.1-5-.3-3.8-1.6-10.8-1.9-12.5z"></path><use xlink:href="#R" x="7.3" y="4.3" class="j"></use><path class="l" d="M226.8 294.2c-1-.5-2-1.7-3.8-1.5-1.5 2.1.3 4.2.4 6.8l1.8 1.1 1.5-1-.2-2c.6.5 1.9 1 2.7.9.8-.3 2.1-1.2 3.2-1.8 2.7-1.4 2.8-3.8 1.3-4.7-.4-.3-1.4-.2-2.7.4.8 0 1.1.3 1.1.6 0 .5-.4 1.1-.8 1.3-2.7 1.3-3.5.4-4.5-.1z"></path><path class="g" d="M226.4 297.7c.5.2 2.4 1 2.7.9.5-.2 1.2-.5 1.8-1l-1.4.6c-1.4-.6-2.1-.8-3.2-1.9l.1 1.4z"></path><path class="S" d="M226.9 176c.2 1.4-.2 2.9-1 4.1-.6 1-1.8 2.1-3.5 2.6l.2 1.6c2.4-.7 4.5-1.8 5-4 .1-.6-.1-2.9-.3-3.6 0-.5-.2-.6-.4-.7z"></path><path class="m" d="M127.4 121.3l-3.3-2 .1 40 2.3 2h1.1l.6-9z"></path><path class="n" d="M127.6 161.3l-3.4-2-55.3 32 3.4 1.9 40.3-21.5z"></path><path d="M126 120.4l.2 40.1-55.3 31.9-.2-40.1z" fill="#131313" class="AQ"></path><path class="m" d="M70 151.6l-4-2 .1 46.5 3.4 2z"></path><path class="n" d="M130.2 116.4l-3.3-2L66 149.6l3.3 2 53.6-29.9z"></path><path d="M72.3 193.2l55.3-31.9-.1-40-55.3 31.9.1 40zm57.9-76.8l.1 46.5-60.9 35.2-.1-46.5 60.9-35.2z" fill="#252525" class="AQ"></path><path class="R" d="M410.2 256.8l26-15.1v-12.8l-26 15.1z"></path><path class="S" d="M438.4 273.1l26-15.1-28.2-16.3-26 15.1z"></path><path class="R" d="M440.1 296.6l26-15.1.1-37.5-25.9 15.1z"></path><path class="S" d="M440.3 259.1l25.9-15.1-31.8-18.4-25.9 15.2z"></path><path class="T" d="M438.4 273.1v-12.8L410.2 244v12.8l28.2 16.3zm-29.9-32.3l31.8 18.4-.1 37.5-31.8-18.4.1-37.5z"></path><use xlink:href="#S" class="q"></use><path class="r" d="M330.6 185.7c.1 0 .1.1.2.1h.3c.1 0 .1 0 .2-.1.2-.1.2-.3 0-.4s-.5-.1-.7 0-.2.3 0 .4zm-2.5 2v-.7c.1-.5.3-.9.6-1.3l.2-.2s.1 0 .1-.1c.2-.2.5-.3.7-.4 1-.4 2.2-.3 3.1.4 0 0 .1 0 .1.1l.2.2c.2.2.3.4.3.4s0 .1.1.1c0 0 0 .1.1.1v.2c0 .1 0 .2.1.3v.4c0 .2 0 .5-.1.8v.4c0 .1 0 .1-.1.2 0 .1-.1.1-.1.2 0 0 0 .1-.1.1l-.1.1s-.1.1-.1.2v.1s0 .1-.1.1l-.3.3c-.1.1-.2.1-.2.2h-.1c-.2.1-.3.2-.5.3h-1.3c-.1 0-.1-.1-.2-.1h-.3s-.1-.1-.2-.1c0 0-.1 0-.1-.1-.2-.1-.4-.3-.6-.6-.1-.1-.1-.1-.1-.2v-.1s-.1-.1-.1-.2 0-.1-.1-.1l-.1-.2v-.7c-.7.1-.7 0-.7-.1z"></path><use xlink:href="#T" class="s"></use><path class="t" d="M331 185.4c0-.4-.1-.6-.1-.8V183l.2-.1v2.8l-.2.1c.1-.2.1-.3.1-.4z"></path><path class="u" d="M330.8 183l.1-.1-.1.1z"></path><path class="v" d="M330.9 183v2.8h-.1s-.1 0-.1-.1v-.9c0-.5 0-.9-.2-1.5.1-.2.3-.4.4-.3z"></path><path class="w" d="M331.4 184.5l.9-.5s-.1 0-.1.1l-.3.3c-.4.2-.6.4-.9.7.1-.3.1-.4.4-.6z"></path><path class="x" d="M331.1 184.8c0-.3.5-.9.8-1.1s.6-.2.9-.1c.7.2 1.2 1.5 1.2 1.9-1.1-.6-2.4-1.4-2.9-.7z"></path><path class="y" d="M333.9 185.5c-.5-.3-2.6-1.6-2.9-.3.1-1.6 2.6-.1 2.9.3z"></path><use xlink:href="#S" x="-10.9" y="-6.4" class="q"></use><path class="z" d="M319.7 179.3c.1 0 .1.1.2.1h.3c.1 0 .1 0 .2-.1.2-.1.2-.3 0-.4s-.5-.1-.7 0-.2.3 0 .4zm-2.6 2v-.7c.1-.5.3-.9.6-1.3l.2-.2s.1 0 .1-.1c.2-.2.5-.3.7-.4 1-.4 2.2-.3 3.1.4 0 0 .1 0 .1.1l.2.2c.2.2.3.4.3.4s0 .1.1.1c0 0 0 .1.1.1v.2c0 .1.1.2.1.3v.4c0 .2 0 .5-.1.8v.4c0 .1 0 .1-.1.2 0 .1-.1.1-.1.2 0 0 0 .1-.1.1l-.1.1s-.1.1-.1.2v.1s0 .1-.1.1l-.3.3c-.1.1-.2.1-.2.2h-.1c-.2.1-.3.2-.5.3h-1.4c-.1 0-.1-.1-.2-.1h-.3s-.1-.1-.2-.1c0 0-.1 0-.1-.1-.2-.1-.4-.3-.6-.6-.1-.1-.1-.1-.1-.2v-.1s-.1-.1-.1-.2 0-.1-.1-.1l-.1-.2v-.7c-.5 0-.6 0-.6-.1z"></path><use xlink:href="#T" x="-10.9" y="-6.4" class="AA"></use><use xlink:href="#U" class="t"></use><path class="u" d="M319.9 176.6s-.1 0 0 0l.1-.1-.1.1z"></path><path class="v" d="M320 176.6v2.8h-.1s-.1 0-.1-.1v-.9c0-.5 0-.9-.2-1.5 0-.2.2-.4.4-.3z"></path><path class="w" d="M320.5 177.7c0-.1.1-.1 0 0l.9-.5s-.1 0-.1.1l-.3.3c-.4.2-.6.4-.9.7.1-.3.2-.4.4-.6z"></path><use xlink:href="#V" class="x"></use><path class="y" d="M323 178.6c-.5-.3-2.6-1.6-2.9-.3.1-1.6 2.6 0 2.9.3z"></path><use xlink:href="#S" x="-5.6" y="-3.3" class="q"></use><path class="AB" d="M325 182.4c.1 0 .1.1.2.1h.3c.1 0 .1 0 .2-.1.2-.1.2-.3 0-.4s-.5-.1-.7 0-.2.3 0 .4zm-2.6 2v-.7c.1-.5.3-.9.6-1.3l.2-.2s.1 0 .1-.1c.2-.2.5-.3.7-.4 1-.4 2.2-.3 3.1.4l.3.3c.2.2.3.4.3.4s0 .1.1.1c0 0 0 .1.1.1v.2c0 .1 0 .2.1.3v.4c0 .2 0 .5-.1.8v.4c0 .1 0 .1-.1.2 0 .1 0 .1-.1.2 0 0 0 .1-.1.1l-.1.1s-.1.1-.1.2v.1s0 .1-.1.1l-.5.5h-.1c-.2.1-.3.2-.5.3h-1.3c-.1 0-.1-.1-.2-.1h-.3s-.1-.1-.2-.1c0 0-.1 0-.1-.1-.2-.1-.4-.3-.6-.6-.1-.1-.1-.1-.1-.2v-.1s-.1-.1-.1-.2 0-.1-.1-.1l-.1-.2v-.7c-.6 0-.6 0-.7-.1z"></path><use xlink:href="#T" x="-5.6" y="-3.3" class="AC"></use><path class="y" d="M323.4 181.6c.6-1.4 2.6-1 1.8.7-.1-.2-1.1-1.1-1.8-.7z"></path><path class="w" d="M325.2 182.4c-.3-.6-1.2-.9-1.8-.8.4-.3 1.5.1 1.8.8z"></path><use xlink:href="#U" x="5.3" y="3.1" class="t"></use><path class="u" d="M325.2 179.7s-.1 0 0 0l.1-.1-.1.1z"></path><path class="v" d="M325.3 179.7v2.8h-.1s-.1 0-.1-.1v-.9c0-.5 0-.9-.2-1.5 0-.2.2-.4.4-.3z"></path><path class="w" d="M325.7 181.8c.1 0 .1-.1 0 0l.9-.5s-.1 0-.1.1l-.3.3c-.4.2-.6.4-.9.7.1-.3.2-.4.4-.6z"></path><use xlink:href="#V" x="5.2" y="4.2" class="x"></use><path class="y" d="M328.2 182.8c-.5-.3-2.6-1.6-2.9-.3.1-1.6 2.6-.1 2.9.3z"></path><use xlink:href="#S" x="103.8" y="60.4" class="q"></use><path class="r" d="M434.4 246.1c.1 0 .1.1.2.1h.3c.1 0 .1 0 .2-.1.2-.1.2-.3 0-.4s-.5-.1-.7 0-.2.3 0 .4zm-2.5 2v-.7c.1-.5.3-.9.6-1.3l.2-.2s.1 0 .1-.1c.2-.2.5-.3.7-.4 1-.4 2.2-.3 3.1.4l.3.3c.2.2.3.4.3.4s0 .1.1.1c0 0 0 .1.1.1v.2c0 .1 0 .2.1.3v.4c0 .2 0 .5-.1.8v.4c0 .1 0 .1-.1.2 0 .1 0 .1-.1.2 0 0 0 .1-.1.1l-.1.1s-.1.1-.1.2v.1s0 .1-.1.1l-.3.3c-.1.1-.2.1-.2.2h-.1c-.2.1-.3.2-.5.3h-1.3c-.1 0-.1-.1-.2-.1h-.3s-.1-.1-.2-.1c0 0-.1 0-.1-.1-.2-.1-.4-.3-.6-.6-.1-.1-.1-.1-.1-.2v-.1s-.1-.1-.1-.2 0-.1-.1-.1l-.1-.2v-.7c-.7.1-.7 0-.7-.1z"></path><use xlink:href="#T" x="103.8" y="60.5" class="s"></use><use xlink:href="#U" x="114.7" y="66.9" class="t"></use><path class="u" d="M434.6 243.4l.1-.1-.1.1z"></path><use xlink:href="#W" class="v"></use><path class="w" d="M435.2 245c0-.1 0-.1 0 0l.9-.5s-.1 0-.1.1l-.3.3c-.4.2-.6.4-.9.7.1-.3.1-.4.4-.6z"></path><path class="x" d="M434.8 245.3c0-.3.5-.9.8-1.1s.6-.2.9-.1c.7.2 1.2 1.5 1.2 1.9-1-.7-2.3-1.5-2.9-.7z"></path><path class="y" d="M437.6 245.9c-.5-.3-2.6-1.6-2.9-.3.2-1.6 2.7 0 2.9.3z"></path><use xlink:href="#S" x="92.9" y="54" class="q"></use><path class="z" d="M423.5 239.7c.1 0 .1.1.2.1h.3c.1 0 .1 0 .2-.1.2-.1.2-.3 0-.4s-.5-.1-.7 0-.2.3 0 .4zm-2.6 2v-.7c.1-.5.3-.9.6-1.3l.2-.2s.1 0 .1-.1c.2-.2.5-.3.7-.4 1-.4 2.2-.3 3.1.4l.3.3c.2.2.3.4.3.4s0 .1.1.1c0 0 0 .1.1.1v.2c0 .1 0 .2.1.3v.4c0 .2 0 .5-.1.8v.4c0 .1 0 .1-.1.2 0 .1 0 .1-.1.2 0 0 0 .1-.1.1l-.1.1s-.1.1-.1.2v.1s0 .1-.1.1l-.3.3c-.1.1-.2.1-.2.2h-.1c-.2.1-.3.2-.5.3h-1.3c-.1 0-.1-.1-.2-.1h-.3c-.1 0-.1-.1-.2-.1 0 0-.1 0-.1-.1-.2-.1-.4-.3-.6-.6-.1-.1-.1-.1-.1-.2v-.1s-.1-.1-.1-.2 0-.1-.1-.1l-.1-.2v-.7c-.7.1-.7 0-.7-.1z"></path><path class="AA" d="M422 240.8c-.1.5.3 1 .9 1.2.6.1 1.2-.2 1.3-.7s-.3-1-.9-1.2c-.6-.1-1.1.2-1.3.7z"></path><use xlink:href="#U" x="103.8" y="60.5" class="t"></use><path class="u" d="M423.7 237c-.1 0-.1 0 0 0l.1-.1-.1.1z"></path><use xlink:href="#W" x="-11" y="-6.4" class="v"></use><path class="w" d="M424.3 238.1s0-.1 0 0l.9-.5s-.1 0-.1.1l-.3.3c-.4.2-.6.4-.9.7.1-.3.1-.4.4-.6z"></path><path class="x" d="M424 238.4c0-.3.5-.9.8-1.1s.6-.2.9-.1c.7.2 1.2 1.5 1.2 1.9-1.1-.7-2.4-1.5-2.9-.7z"></path><path class="y" d="M426.8 239c-.5-.3-2.6-1.6-2.9-.3.1-1.5 2.6 0 2.9.3z"></path><use xlink:href="#S" x="98.2" y="57.1" class="q"></use><path class="AB" d="M428.8 242.8c.1 0 .1.1.2.1h.3c.1 0 .1 0 .2-.1.2-.1.2-.3 0-.4s-.5-.1-.7 0-.2.3 0 .4zm-2.6 2v-.7c.1-.5.3-.9.6-1.3l.2-.2s.1 0 .1-.1c.2-.2.5-.3.7-.4 1-.4 2.2-.3 3.1.4l.3.3c.2.2.3.4.3.4s0 .1.1.1c0 0 0 .1.1.1v.2c0 .1 0 .2.1.3v.4c0 .2 0 .5-.1.8v.4c0 .1 0 .1-.1.2 0 .1-.1.1-.1.2 0 0 0 .1-.1.1l-.1.1s-.1.1-.1.2v.1s0 .1-.1.1l-.3.3c-.1.1-.2.1-.2.2h-.1c-.2.1-.3.2-.5.3h-1.4c-.1 0-.2-.1-.2-.1h-.3s-.1-.1-.2-.1c0 0-.1 0-.1-.1-.2-.1-.4-.3-.6-.6-.1-.1-.1-.1-.1-.2v-.1s-.1-.1-.1-.2 0-.1-.1-.1l-.1-.2v-.7c-.6.1-.6 0-.6-.1z"></path><path class="AC" d="M427.3 243.9c-.1.5.3 1 .9 1.2.6.1 1.2-.2 1.3-.7s-.3-1-.9-1.2c-.6-.1-1.1.2-1.3.7z"></path><path class="y" d="M427.1 242c.6-1.4 2.6-1 1.8.7 0-.2-1-1-1.8-.7z"></path><path class="w" d="M428.9 242.8c-.3-.6-1.2-.9-1.8-.8.5-.3 1.6.1 1.8.8z"></path><use xlink:href="#U" x="109.1" y="63.6" class="t"></use><path class="u" d="M429 240.1c-.1 0-.1 0 0 0l.1-.1-.1.1z"></path><use xlink:href="#W" x="-5.7" y="-3.3" class="v"></use><path class="w" d="M429.5 242.2l.9-.5s-.1 0-.1.1l-.3.3c-.4.2-.6.4-.9.7.1-.3.2-.4.4-.6z"></path><use xlink:href="#V" x="109" y="64.6" class="x"></use><path class="y" d="M432 243.2c-.5-.3-2.6-1.6-2.9-.3.1-1.6 2.6 0 2.9.3z"></path><path class="AD" d="M334.1 168.2c-.1-.2-.1-.3-.1-.4s-.1-.1-.1-.2-.1-.1-.1-.2 0-.1-.1-.2c0-.1-.1-.1-.1-.2v-.1c0-.1-.1-.2-.1-.3v-.1c0-.1-.1-.2-.1-.2v-.4c0-.1 0-.2-.1-.3v.1-.9l-.2.2s-.1.1-.2.1c-.1.1-.3.1-.5.2h-1.3c-.1 0-.2-.1-.3-.1l-.3-.3c-.1-.1-.1-.2-.1-.3v1.2c-.1.8-.3 1.4-.8 2.6v.6l.1.1s.1 0 .1.1h.1l.1.1c.1 0 .1.1.2.1h2.2c.1 0 .1-.1.2-.1v-1.1c1.5.1 1.5 0 1.5 0z"></path><path class="AD" d="M334.7 169.9s0-.1 0 0c0-.1 0-.1 0 0v-1.6s0-.1-.1-.1c0 0 0-.1-.1-.1 0 0 0-.1-.1-.1 0 .1 0 .1.1.2-.1-.1-.1-.2-.2-.3v-.1c0-.1-.1-.2-.1-.2v-.1c0-.1 0-.1-.1-.2v-.1s0-.1-.1-.1v-.1c0-.1-.1-.1-.1-.2v-.4c0-.1-.1-.2-.1-.3v.3s0 .1-.1.1l-.3.3c-.1 0-.2.1-.2.1h-1.7c-.1 0-.2-.1-.3-.1h-.3v-.4c-.1.6-.3 1.2-.8 2.1 0-.1 0-.1.1-.2 0 .1-.1.2-.2.3v2l.1 6.9v1.4l.3.3a1.38 1.38 0 0 0 .4.3c1 .6 2.7.6 3.7 0 .2-.1.4-.2.5-.4l.2-.2s0-.1.1-.1v-1.5l-.6-7.4z"></path><g class="AQ"><path d="M333.5 163.8v.4s0 .1-.1.1h-.4c-.1 0-.2.1-.2.1h-1.6c-.1 0-.2 0-.2-.1-.1 0-.2-.1-.3-.1-.2-.1-.3-.2-.4-.3s-.1-.2-.1-.4v.9c0 .3.2.5.5.7.1 0 .2.1.2.1s.1 0 .2.1h1.9c.1 0 .2-.1.2-.1h.3l.1-.1v-1.3c-.1-.1-.1-.1-.1 0z" fill="#b84437"></path><path d="M333 163c-.7-.4-1.8-.4-2.4 0-.7.4-.7 1 0 1.4s1.8.4 2.4 0 .6-1 0-1.4z" fill="#9c392e"></path><path d="M334.5 170.1c0-.1 0-.1 0 0 0-.1 0-.1 0 0v-1.6s0-.1-.1-.1c0 0 0-.1-.1-.1 0 .1 0 .1.1.2-.1-.1-.1-.2-.1-.3v-.1c0-.1-.1-.1-.1-.2v-.1c0-.1 0-.1-.1-.2v-.1s0-.1-.1-.1v-.1c0-.1 0-.1-.1-.2v-.3c0-.1-.1-.2-.1-.3v.3s0 .1-.1.1v.1c-.1.1-.1.1-.2.1s-.1.1-.2.1h-1.2c-.1 0 0 0 0 0h-.3c-.1 0-.2-.1-.2-.1h-.2v-.3c-.1.6-.3 1.1-.7 1.9 0-.1 0-.1.1-.2 0 .1-.1.2-.1.3v1.9l.1 6.5v1.3l.2.2s0 .1.1.1a1.38 1.38 0 0 0 .4.3c.9.6 2.5.6 3.5 0 .2-.1.3-.2.5-.3l.2-.2s0-.1.1-.1V177l-1.3-6.9z" fill="#ebf4ff"></path></g><path class="AD" d="M428.4 227.6v8.8s0 .1.1.1l.4.4c.8.5 2.1.5 2.9 0 .2-.1.3-.2.4-.3l.1-.1v-8.6c0 .3-.2.7-.7.9-.9.5-2.3.5-3.2 0 .2-.6 0-.9 0-1.2z"></path><path class="AA" d="M428.6 230.2v5.9s0 .1.1.1l.1.1c.1.1.2.2.3.2.7.4 2 .5 2.7 0 .1-.1.3-.2.4-.3 0 0 0-.1.1-.1v-5.7c-.1.2-.3.4-.5.5-.9.5-2.3.5-3.2 0 .3-.4.1-.5 0-.7z"></path><path d="M432.3 226.6c-.9-.5-2.3-.5-3.2 0s-.9 1.3 0 1.9c.9.5 2.3.5 3.2 0s.9-1.4 0-1.9z" fill="#82d9e8" class="AQ"></path><path class="AD" d="M432.2 226.7c-.8-.5-2.2-.5-3 0s-.8 1.2 0 1.7 2.2.5 3 0c.9-.5.8-1.2 0-1.7z"></path><path d="M432.2 229.2c-.8-.5-2.2-.5-3 0s-.8 1.2 0 1.7 2.2.5 3 0c.9-.5.8-1.2 0-1.7z" fill="#ffbc57" class="AQ"></path><path class="AJ" d="M488.6 303.5l4.6-2.7-1.2 4.3-4.6 2.7z"></path><path class="I" d="M534.4 326.7l4.6-2.7 1.3 9.6-4.6 2.6z"></path><path class="AK" d="M484.9 297.5l4.5-2.7L539 324l-4.6 2.7z"></path><path class="AL" d="M534.4 326.7l1.3 9.5-3.8-2.1-1.2-5.7-42.1-24.9-1.2 4.3-3.8-2.2 1.3-8.1z"></path><path class="I" d="M458.8 320.8l4.6-2.6-1.3 4.3-4.6 2.6zm45.8 23.2l4.6-2.6 1.2 9.5-4.6 2.7z"></path><path class="AK" d="M455 314.8l4.6-2.6 49.6 29.2-4.6 2.6z"></path><path class="AL" d="M504.6 344l1.2 9.6-3.8-2.2-1.2-5.7-42-24.9-1.3 4.3-3.8-2.2 1.3-8.1z"></path><path class="AM" d="M459.9 319.4v.5c0 .1 0 .3-.1.4v.1c0 .1-.1.2-.1.3v.1c0 .1-.1.2-.1.3s-.1.2-.2.3c0 .1-.1.1-.2.2l-.1.1c0 .1-.1.1-.2.1l-.1.1c-.1.1-.2.1-.2.2l37.3-21.7c.1 0 .2-.1.2-.2l.1-.1c.1 0 .1-.1.2-.1l.3-.3c.1-.1.1-.2.2-.3 0-.1.1-.1.1-.2v-.3c0-.1 0-.1.1-.2v-.9l-37.2 21.6z"></path><path class="AN" d="M460 302l-.1 17.4 37.3-21.7.1-17.4z"></path><path class="S" d="M456.7 295.4c0 .1 0 .1 0 0a1.38 1.38 0 0 1 .4.3l.3.3c.1.1.2.3.3.4.2.3.4.5.6.8.1.1.1.2.2.3 0 .1.1.1.1.2 0 0 0 .1.1.1.1.1.1.3.2.4.1.2.2.3.2.5.1.2.1.3.2.5s.1.3.2.5c0 .2.1.3.1.5s.1.3.1.5a.9.9 0 0 0 .1.5v.5l37.3-21.7v-1.6c0-.1 0-.1-.1-.2v-.2c0-.1 0-.1-.1-.2 0-.1 0-.1-.1-.2v-.1c0-.1-.1-.1-.1-.2 0 0 0-.1-.1-.1 0-.1-.1-.1-.1-.2s-.1-.1-.1-.2-.1-.1-.1-.2-.1-.1-.1-.2c0 0 0-.1-.1-.1 0-.1-.1-.1-.1-.2-.1-.1-.1-.2-.2-.3s-.2-.2-.3-.4c-.1-.1-.1-.2-.2-.2 0-.1-.1-.1-.2-.2l-.7-.7h-.1l-.3-.3s-.1 0-.1-.1h-.1c-.1 0-.1-.1-.2-.1l-.1-.1c-.1 0-.1-.1-.2-.1s-.1-.1-.2-.1h-.1s-.1 0-.1-.1c-.1 0-.1-.1-.2-.1h-.1c-.1 0-.1 0-.2-.1-.1 0-.1 0-.2-.1h-1.6c-.1 0-.2 0-.2.1-.1 0-.2.1-.3.1L452.8 295c.1-.1.2-.1.3-.1s.2-.1.2-.1h.8c.1 0 .2 0 .3.1.1 0 .2.1.4.1a.76.76 0 0 1 .4.2c.1.1.3.1.4.2h.1c.1.1.3.2.4.3.4-.4.5-.4.6-.3z"></path><use xlink:href="#X" class="T"></use><path class="T" d="M491.4 266.3l-5.6 31.3c0 .1 0 .3-.1.4v1.9c0 .1 0 .2.1.3 0 .1 0 .2.1.3 0 .1.1.2.1.3s.1.2.1.2c.1.1.1.2.2.3 0 .1.1.1.1.2.1.1.1.2.2.3l.1.1c.1.1.3.2.4.3l36.3 21.1.3-3.6 5.6-31.4-37.9-22z"></path><path class="S" d="M537.3 280.3L500 258.6s-.1 0-.1-.1c0 0-.1 0-.1-.1h-1.4c-.1 0-.2 0-.3.1h-.4a.76.76 0 0 0-.4.2h-.2c-.2.1-.3.2-.5.3-.1.1-.3.2-.4.3l-.1.1c-.1.1-.2.1-.3.2-.1 0-.1.1-.2.1-.1.1-.2.1-.3.2l-.2.2c-.1.1-.2.1-.2.2-.2.2-.3.3-.4.5l-.2.2c-.1.1-.2.2-.2.3l-.1.1s0 .1-.1.1l-.3.3s0 .1-.1.1c0 .1-.1.1-.1.2l-.2.2c0 .1-.1.1-.1.2 0 0 0 .1-.1.1 0 .1-.1.1-.1.2s-.1.1-.1.2v.1c-.1.1-.1.3-.2.4s-.1.3-.2.4v.1c0 .1 0 .1-.1.2 0 .1-.1.1-.1.2v.1c0 .1 0 .1-.1.2 0 .1 0 .1-.1.2v.2c0 .1 0 .2-.1.2v.3c0 .1-.1.2-.1.3v.1c0 .1 0 .2-.1.3l38 22.1c.5-3 2.6-5.9 4.9-7.2.4-.2.8-.4 1.2-.5 0-.2.6-.3 1.5-.4z"></path><path class="AN" d="M535.5 280.6c-.5.1-.9.3-1.2.5-2.3 1.3-4.3 4.3-4.9 7.3l-5.6 31.3c-.6 3.5 1.1 5.6 3.8 4.8h.1c.4-.1.8-.3 1.1-.5 2.3-1.3 4.3-4.3 4.9-7.3l5.6-31.3c.6-3.5-1.1-5.7-3.8-4.8z"></path><path class="R" d="M523.6 321.5l-36.5-21.2c-.1 0-.2-.1-.3-.1h-1.9c-.1 0-.2.1-.4.1h-.1s-.1 0-.1.1c0 0-.1 0-.1.1-.2.1-.3.1-.5.2l14.9 10.7 22.4 11s.1-.1.2-.1.1-.1.2-.1.2-.1.3-.1.2 0 .3-.1h.1l.2-.1h.2l.3-.1h.6l.2-.3z"></path><path class="T" d="M496.4 342.1l-25.3-15.9-12.1-5.8v.1c0 .6.1 1.1.2 1.6.1.3.2.6.4.8l.3.3c.2.2.4.4.6.5l36.4 21.2c2.4-.3 2.3-1.3-.5-2.8z"></path><path class="R" d="M503.5 332.2L488 321.8l-23.9-10c-.2.1-.3.2-.5.3-.1 0-.1.1-.2.1-.1.1-.2.2-.3.2s-.1.1-.2.1c-.1.1-.2.2-.3.2l-.4.4c-.1.1-.2.2-.3.4l-.2.2c-.1.1-.1.2-.2.2 0 .1-.1.1-.1.2l-.1.1c0 .1-.1.1-.1.2l-.1.1c-.1.1-.1.2-.2.2l-.1.1v.1c-.1.1-.2.3-.3.4v.1c-.1.1-.1.2-.2.3 0 0 0 .1-.1.1 0 0-.1.1-.1.2 0 0 0 .1-.1.1-.1.1-.1.2-.2.4v.1c-.1.1-.1.3-.2.5v.1c0 .1 0 .1-.1.2 0 .1-.1.1-.1.2s0 .1-.1.2c0 .1 0 .1-.1.2v.1c0 .1 0 .2-.1.2 0 .1 0 .2-.1.3v.3c0 .1-.1.3-.1.4v1.1l37.3 21.7c0-3.2 2.2-7.1 5-8.7l2.3-1.2z"></path><path class="S" d="M501.4 333.5l-37.3-21.7 19.4-11.2 37.3 21.7-19.4 11.1z"></path><path class="AN" d="M503.5 344.2v.5c0 .1 0 .3-.1.4 0 .1-.1.2-.1.3v.1c0 .1-.1.2-.1.3s-.1.2-.2.3l-.3.3c0 .1-.1.1-.2.1l-.1.1c-.1.1-.2.1-.2.2l37.3-21.7c.1 0 .2-.1.2-.2l.1-.1c.1 0 .1-.1.2-.1l.3-.3c.1-.1.1-.2.2-.3 0-.1.1-.1.1-.2v-.3c0-.1 0-.1.1-.2v-.9l-37.2 21.7z"></path><path class="AN" d="M503.5 326.8v17.4l37.3-21.7v-17.4z"></path><path class="S" d="M500.2 320.3a1.38 1.38 0 0 1 .4.3l.3.3c.1.1.2.3.3.4.2.3.4.5.6.8.1.1.1.2.2.3 0 .1.1.1.1.2 0 0 0 .1.1.1.1.1.1.3.2.4.1.2.2.3.2.5.1.2.1.3.2.5s.1.3.2.5c0 .2.1.3.1.5s.1.3.1.5a.9.9 0 0 0 .1.5v.5l37.3-21.7v-1.6c0-.1 0-.1-.1-.2v-.2c0-.1 0-.1-.1-.2 0-.1 0-.1-.1-.2v-.1c0-.1-.1-.1-.1-.2 0 0 0-.1-.1-.1 0-.1-.1-.1-.1-.2s-.1-.1-.1-.2-.1-.1-.1-.2-.1-.1-.1-.2c0 0 0-.1-.1-.1 0-.1-.1-.1-.1-.2-.1-.1-.1-.2-.2-.3s-.2-.2-.3-.4c-.1-.1-.1-.2-.2-.2 0-.1-.1-.1-.2-.2l-.7-.7h-.1l-.3-.3s-.1 0-.1-.1h-.1c-.1 0-.1-.1-.2-.1l-.1-.1c-.1 0-.1-.1-.2-.1s-.1-.1-.2-.1h-.1s-.1 0-.1-.1c-.1 0-.1-.1-.2-.1h-.1c-.1 0-.1 0-.2-.1-.1 0-.1 0-.2-.1h-1.6c-.1 0-.2 0-.2.1-.1 0-.2.1-.3.1l-37.3 21.7c.1-.1.2-.1.3-.1s.2-.1.2-.1h.8c.1 0 .2 0 .3.1.1 0 .2.1.4.1a.76.76 0 0 1 .4.2c.1.1.3.1.4.2h.1c.1.1.3.2.4.3.4-.5.5-.4.6-.3z"></path><use xlink:href="#Y" class="T"></use><path class="AJ" d="M355.7 387.2l4.6-2.7-1.2 4.3-4.6 2.7z"></path><path class="I" d="M401.6 410.4l4.5-2.7 1.3 9.6-4.6 2.6z"></path><path class="AK" d="M352 381.2l4.5-2.7 49.6 29.2-4.5 2.7z"></path><path class="AL" d="M401.6 410.4l1.2 9.5-3.8-2.1-1.2-5.8-42.1-24.8-1.2 4.3-3.8-2.2 1.3-8.1z"></path><path class="I" d="M325.9 404.5l4.6-2.6-1.3 4.2-4.6 2.7zm45.8 23.2l4.6-2.6 1.2 9.5-4.6 2.7z"></path><path class="AK" d="M322.1 398.5l4.6-2.6 49.6 29.2-4.6 2.6z"></path><path class="AL" d="M371.7 427.7l1.2 9.6-3.8-2.2-1.2-5.7-42-24.9-1.3 4.3-3.7-2.2 1.2-8.1z"></path><path class="AM" d="M327 403.1v.5c0 .1 0 .3-.1.4 0 .1-.1.2-.1.3v.1c0 .1-.1.2-.1.3s-.1.2-.2.3c0 .1-.1.1-.2.2l-.1.1c0 .1-.1.1-.2.1l-.1.1c-.1.1-.2.1-.2.2L363 384c.1 0 .2-.1.2-.2l.1-.1c.1 0 .1-.1.2-.1l.3-.3c.1-.1.1-.2.2-.3 0-.1.1-.1.1-.2v-.3c0-.1 0-.1.1-.2v-1L327 403.1z"></path><path class="AN" d="M327.1 385.7l-.1 17.4 37.3-21.7.1-17.4z"></path><path class="S" d="M323.8 379.1s0 .1 0 0a1.38 1.38 0 0 1 .4.3l.3.3c.1.1.2.3.3.4.2.3.4.5.6.8.1.1.1.2.2.3 0 .1.1.1.1.2 0 0 0 .1.1.1.1.1.1.3.2.4.1.2.2.3.2.5.1.2.1.3.2.5s.1.3.2.5c0 .2.1.3.1.5s.1.3.1.5a.9.9 0 0 0 .1.5v.5l37.3-21.7v-1.6c0-.1 0-.1-.1-.2v-.2c0-.1 0-.1-.1-.2 0-.1 0-.1-.1-.2v-.1c0-.1-.1-.1-.1-.2 0 0 0-.1-.1-.1 0-.1-.1-.1-.1-.2s-.1-.1-.1-.2-.1-.1-.1-.2-.1-.1-.1-.2c0 0 0-.1-.1-.1 0-.1-.1-.1-.1-.2-.1-.1-.1-.2-.2-.3s-.2-.3-.3-.4-.1-.2-.2-.2l-1.3-1.3s-.1 0-.1-.1h-.1c-.1 0-.1-.1-.2-.1l-.1-.1c-.1 0-.1-.1-.2-.1s-.1-.1-.2-.1h-.1s-.1 0-.1-.1c-.1 0-.1-.1-.2-.1 0 0-.1 0-.1-.1-.1 0-.1 0-.2-.1-.1 0-.1 0-.2-.1h-1.6c-.1 0-.2 0-.2.1-.1 0-.2.1-.3.1L320 378.2c.1-.1.2-.1.3-.1s.2-.1.2-.1h.8c.1 0 .2 0 .3.1.1 0 .2.1.4.1a.76.76 0 0 1 .4.2c.1.1.3.1.4.2h.1c.1.1.3.2.4.3.3 0 .4.1.5.2z"></path><use xlink:href="#X" x="-132.9" y="83.7" class="T"></use><path class="R" d="M402.9 399.4l-36.5-21.2c-.1 0-.2-.1-.3-.1h-2c-.1 0-.2.1-.4.1h-.1s-.1 0-.1.1c0 0-.1 0-.1.1-.2.1-.3.1-.5.2l14.9 10.7 22.4 11s.1-.1.2-.1.1-.1.2-.1.2-.1.3-.1.2 0 .3-.1h.1l.2-.1h.2l.3-.1h.6l.3-.3z"></path><path class="T" d="M375.7 420l-25.3-15.9-12.1-5.8v.1c0 .6.1 1.1.2 1.6.1.3.2.6.4.8l.3.3c.2.2.4.4.6.5l36.4 21.2c2.4-.2 2.3-1.3-.5-2.8z"></path><path class="R" d="M382.8 410.2l-15.5-10.4-23.9-10c-.2.1-.3.2-.5.3 0 0-.1.1-.2.1-.1.1-.2.2-.3.2s-.1.1-.2.1c-.1.1-.2.2-.3.2l-.4.4c-.1.1-.2.2-.3.4l-.2.2c-.1.1-.1.2-.2.2 0 .1-.1.1-.1.2l-.1.1c0 .1-.1.1-.1.2l-.1.1c-.1.1-.1.2-.2.2l-.1.1v.1c-.1.1-.2.3-.3.4v.1c-.1.1-.1.2-.2.3l-.1.1s-.1.1-.1.2c0 0 0 .1-.1.1-.1.1-.1.2-.2.4v.1c-.1.1-.1.3-.2.5v.1c0 .1 0 .1-.1.2 0 .1-.1.1-.1.2s0 .1-.1.2c0 .1 0 .1-.1.2v.1c0 .1 0 .2-.1.2 0 .1 0 .2-.1.3v.3c0 .1 0 .3-.1.4v1.1l37.3 21.7c0-3.2 2.2-7.1 5-8.7l2.3-1.2z"></path><path class="S" d="M380.7 411.4l-37.3-21.7 19.4-11.2 37.3 21.7-19.4 11.2z"></path><path class="T" d="M316.6 371.3l7.1 29.9c.7 1.7 1 4.4 4.2 6.3l37.1 22.2c-1.8-1.5-2.6-4.5-3.3-6.4l-7.1-29.9v-.1l-38-22z"></path><path class="S" d="M362.5 385.3l-37.3-21.7s-.1 0-.1-.1c0 0-.1 0-.1-.1h-.2c-4.1-1.2-9.3 3.7-8 7.9l38 22.1c.5-3 2.6-5.9 4.9-7.2.4-.2.8-.4 1.2-.5.1-.2.8-.3 1.6-.4z"></path><path class="AN" d="M354.7 393.5l7.1 29.9c.4 2 1.8 5 2.5 5.8 2.6 3.2 9.2-.4 7.4-8.9l-6.6-30c-.6-2.8-.8-4.5-2.4-4.9-3.7-1.1-8.9 4.5-8 8.1z"></path><path class="AN" d="M370.6 427.9v.5c0 .1 0 .3-.1.4 0 .1-.1.2-.1.3v.1c0 .1-.1.2-.1.3s-.1.2-.2.3c0 .1-.1.1-.2.2l-.1.1c0 .1-.1.1-.2.1l-.1.1c-.1.1-.2.1-.2.2l37.3-21.7c.1 0 .2-.1.2-.2l.1-.1c.1 0 .1-.1.2-.1l.3-.3c.1-.1.1-.2.2-.3 0-.1.1-.1.1-.2v-.3c0-.1 0-.1.1-.2v-.9l-37.2 21.7z"></path><path class="AN" d="M370.6 410.5v17.4l37.3-21.7v-17.4z"></path><path class="S" d="M367.3 404a1.38 1.38 0 0 1 .4.3l.3.3c.1.1.2.3.3.4.2.3.4.5.6.8.1.1.1.2.2.3 0 .1.1.1.1.2 0 0 0 .1.1.1.1.1.1.3.2.4.1.2.2.3.2.5.1.2.1.3.2.5s.1.3.2.5c0 .2.1.3.1.5s.1.3.1.5a.9.9 0 0 0 .1.5v.5l37.3-21.7V387c0-.1 0-.1-.1-.2v-.2c0-.1 0-.1-.1-.2 0-.1 0-.1-.1-.2v-.1c0-.1-.1-.1-.1-.2 0 0 0-.1-.1-.1 0-.1-.1-.1-.1-.2s-.1-.1-.1-.2-.1-.1-.1-.2-.1-.1-.1-.2c0 0 0-.1-.1-.1 0-.1-.1-.1-.1-.2-.1-.1-.1-.2-.2-.3s-.2-.2-.3-.4c-.1-.1-.1-.2-.2-.2 0-.1-.1-.1-.2-.2l-1.1-1.1s-.1 0-.1-.1l-.1-.1c-.1 0-.1-.1-.2-.1l-.1-.1c-.1 0-.1-.1-.2-.1s-.1-.1-.2-.1h-.1l-.1-.1c-.1 0-.1-.1-.2-.1h-.1c-.1 0-.1 0-.2-.1-.1 0-.1 0-.2-.1h-1.6c-.1 0-.2 0-.2.1-.1 0-.2.1-.3.1l-37.3 21.7c.1-.1.2-.1.3-.1s.2-.1.2-.1h.8c.1 0 .2 0 .3.1.1 0 .2.1.4.1a.76.76 0 0 1 .4.2c.1.1.3.1.4.2h.1c.1.1.3.2.4.3.4-.3.5-.2.6-.1z"></path><use xlink:href="#Y" x="-132.9" y="83.7" class="T"></use><path d="M435 371.1l-29.1-15.3v15.8l26.9 15.6z" fill="#6e7f86" class="AQ"></path><path class="J" d="M432.7 371.4l.1 15.8 29.2-16.9v-15.8z"></path><path class="T" d="M434.7 364.6l-37.2-19.3v6.7l35.5 20.5z"></path><path class="S" d="M397.5 345.3l35.5 20.6 38.5-22.3-35.4-20.6z"></path><path class="R" d="M433 365.9v6.6l38.5-22.2v-6.7z"></path><path class="AP" d="M428.1 353.1z"></path><path class="AP" d="M428 350.4z"></path><defs><path id="B" d="M255.7 172c-3.5-1.1-6.8 2.6-8.2 5.2-1.2 2.3-2.4 6.3-.2 8.4l2.6 1.5c-2.1-3.6.8-10.2 3.5-12.2 1.4-1.1 3.1-2.5 4.5-1.7l-2.2-1.2z"></path><path id="C" d="M165 227.3c2.3-1.3 4.2-.3 4.2 2.4s-1.9 6-4.2 7.3-4.2.3-4.2-2.4 1.9-5.9 4.2-7.3z"></path><path id="D" d="M304 179.6l.2 18.3c0 6.2-1.4 9.7-4.5 11.3l-2.8-1.4-1.1-4c2.5-5.6 5.1-4.1 5-8.3l.1-15.9h3.1z"></path><path id="E" d="M258.9 128.4c0-2.4.9-4 2.2-4.8l2.7-1.6c-1.4.8-2.2 2.5-2.2 4.8l-.1 23.4-2.7 1.6.1-23.4z"></path><path id="F" d="M264 120.4c-.2-.1-.4-.1-.6-.2-.1 0-.3-.1-.4-.1s-.2-.1-.4-.1-.3-.1-.5-.1h-1c-.2 0-.4 0-.6.1h-.2c-.2 0-.3.1-.5.1-.1 0-.1 0-.1.1l-.6.3 2.7-1.6c.1-.1.3-.1.4-.2h.1s.1 0 .1-.1c.1 0 .1-.1.2-.1s.2 0 .2-.1h.3c.2 0 .3 0 .5-.1h1.3c.1 0 .2 0 .4.1h.2c.1 0 .1 0 .2.1.2.1.4.1.6.2.1 0 .1 0 .2.1 0 0 .1 0 .1.1l1.1.5-2.7 1.6c-.4-.2-.7-.4-1.1-.5.3 0 .2 0 .1-.1z"></path><path id="G" d="M256.8 126c0-5.4 3.9-7.6 8.6-4.9l29.6 17.1c4.7 2.7 8.5 9.4 8.5 14.8l-.1 24.5-2.1-1.2.1-23.4c0-4.8-3.5-10.8-7.8-13.3l-27-15.6c-4.3-2.5-7.8-.6-7.8 4.3l-.1 23.4-2.1-1.2.2-24.5z"></path><path id="H" d="M262.9 134.3c0-4.2 3-5.9 6.6-3.8l22.9 13.2c3.7 2.1 6.6 7.2 6.6 11.4l-.1 18.9-36.1-20.8.1-18.9z"></path><path id="I" d="M264.2 160.6c5.5 5.9 5.4 11.7 2.1 13.4-3.8 2-9.7-4.8-15.9-8.7-6.2-4-9.9-9.4-6.1-11.4 2.6-1.3 7-.9 10.5.4 2.7.9 7.5 4.2 9.4 6.3z"></path><path id="J" d="M260.3 159.9c4.7 4 5.8 8.7 2.4 9.9s-9.9-1-14.6-5-4.5-7.8-1.1-9c3.5-.2 2.4-1.8 6.8 0 2 .9 4.3 2.2 6.5 4.1z"></path><path id="K" d="M268.3 168.2c.9 3.1-1 5.2-2.4 5.8-7.8 3.4-25.1 4-27.3 11.7-3.7-2.4-10.9-5.9-16.1-4.7.3-4.4-1.6-5.9 0-8.6 14.8-2.7 13.3-19 25.7-19.7 7.8 0 17.6 7.2 20.1 15.5z"></path><path id="L" d="M274.1 147.5c1.1 1.8.3 4.5-1.7 6.3-1.9 1.8-4.8 2.7-7 3.3 1.1-1.4 3.1-2.3 2.8-3.2-.1-.5-1.2-1.5-3.4-.1.8-1.5 1.2-1.7 2.1-3 3.2-3.7-5.4-5.9-4.4-7.7 2.4-2.3 4.6-2.4 6.7-1.7 2.4.6 5.1 3.6 4.9 6.1z"></path><path id="M" d="M166.8 206.7c-3.9-.7-8-1.5-8.3-.1-.4 1.8 6.1 7.2 7.6 8.5 3.3 2.6 9.4 2.9 13.4 3 1.1-1.2-9.8-10.9-12.7-11.4z"></path><path id="N" d="M238 196.7c-.7 1.3.6 2.7 2.1 2.8l16.4-8.5c3.1-2.1 2.9-4.4 1.6-5.6-.6-.5-2.6-1.4-4.1-1.2-1.7.3-4 1.6-5.5 2.9l-10.5 9.6z"></path><path id="O" d="M157.7 192.8c-.2-.1-.3-.1-.5-.2-.1 0-.2-.1-.3-.1s-.2 0-.3-.1c-.1 0-.2 0-.4-.1h-.7c-.2 0-.3 0-.5.1h-.1c-.1 0-.2.1-.4.1h-.1c-.2.1-.3.1-.4.2l1.4-.8c.1-.1.2-.1.3-.2h.2c.1 0 .1 0 .2-.1h1.9c.1 0 .2 0 .3.1h.1s.1 0 .1.1c.2 0 .3.1.5.2.1 0 .1 0 .2.1h.1c.3.1.6.3.8.4l-1.4.8c-.3-.2-.6-.3-.8-.4 0-.1-.1-.1-.2-.1z"></path><path id="P" d="M282 268.3c-2.3 1.1-4.7 1.1-7.4.6-3.9-.6-8-1.5-8.3-.1-.3 1.5 1.9 3.4 3 4.2 1.1.9 4.8 1.7 8.3 2.9 2.4.8 3.1 1.8 5.1.1 1.6-1.4.2-2.7 3.1-4.9l-1.6-2-2.2-.8z"></path><path id="Q" d="M219.2 72.8c.1 0 .1-.1.2-.1h.1c.1 0 .1-.1.2-.1s.1-.1.2-.1.1-.1.2-.2l.2-.2c.1-.1.1-.2.2-.3s.1-.3.2-.4c0-.1.1-.3.1-.4s0-.3.1-.4v-.8c0-.1 0-.2-.1-.3 0-.1-.1-.2-.1-.3s-.1-.2-.1-.2c2.4 1.4 17.5 9.1 19.9 11.4.7.7.5 3.9-1.3 4.2l-20-11.8z"></path><path id="R" d="M219.4 283.6c.2 2.2.6 3.9 1.6 4.4 1.8.9 2.7.1 3.3 0 .2-.1 1.7.9 1.8.9l-2.8 3.8-8-1.9c.1-2.6.8-2.6.7-4.5l-.1-2.2 3.5-.5z"></path><path id="S" d="M330.6 185.3c.2-.1.5-.1.7 0s.2.3 0 .4-.5.1-.7 0-.2-.3 0-.4z"></path><path id="T" d="M329.2 186.7c-.1.5.3 1 .9 1.2.6.1 1.2-.2 1.3-.7s-.3-1-.9-1.2c-.6-.1-1.2.2-1.3.7z"></path><path id="U" d="M320 179c0-.4-.1-.6-.1-.8v-1.6l.2-.1v2.8l-.2.1c.1-.2.1-.3.1-.4z"></path><path id="V" d="M320.2 177.9c0-.3.5-.9.8-1.1s.6-.2.9-.1c.7.2 1.2 1.5 1.2 1.9-1-.6-2.3-1.4-2.9-.7z"></path><path id="W" d="M434.7 243.4v2.8h-.1s-.1 0-.1-.1v-.9c0-.5 0-.9-.2-1.5.1-.2.3-.3.4-.3z"></path><path id="X" d="M455.9 294.9c-2.3-1.4-4.2-.3-4.2 2.3l-.1 17.4c0 2.6 1.8 5.8 4.1 7.1h.1c2.3 1.3 4.1.3 4.1-2.3l.1-17.4c0-2.6-1.8-5.8-4.1-7.1z"></path><path id="Y" d="M499.4 319.7c-2.4-1.4-4.2-.3-4.2 2.3l-.1 17.4c0 2.6 1.8 5.8 4.1 7.1h.1c2.3 1.3 4.1.3 4.1-2.3l.1-17.4c0-2.6-1.8-5.8-4.1-7.1z"></path></defs></svg> 