<?xml version="1.0" encoding="UTF-8"?> <svg xmlns="http://www.w3.org/2000/svg" xmlns:xlink="http://www.w3.org/1999/xlink" width="600" height="491"><style>.C{fill:#fff}.A{fill:#f6ccb8}.B{fill:#42404d}.D{fill:#e6e7e8}.E{fill:#4f3c30}.F{fill:#3c2417}.G{fill:#f05d44}.H{fill:#f7cdb9}.I{fill:#383643}.J{fill:#221f1f}.K{fill:#43414d}.M{fill:#1b788e}.N{fill:#a7a9ac}.O{fill:#3c2415}.S{fill:#7cc9e8}.T{fill:#60c3e2}</style><path class="A" d="M488.3 167.7l-4.6-.4v-12h-18.4v12l-4.6.4 4.6 29.3h18.4z"></path><path class="A" d="M465.3 155.4v5.2l18.4 6.7v-11.9zm-17.6 98.2h53.6c12.3 21.2-1.1 56.2-7.4 123.3-1.1 9.5 2.1 32.2 3 54.2l1.9 18.1h-11.9l-1.8-18.1-6.4-54.4-3.2-87.3h-2l-2.3 141.7.1 18.1h-11.9v-18.1c.2-103.6-26.9-151.2-11.7-177.5z"></path><path class="B" d="M471.3 438.9s-1.3 7.8-5.9 7.8-5.9-7.8-5.9-7.8-1.2 4.6-1.2 7.6c0 5.6 2.2 8.7 7.2 8.7 4.9 0 7.2-3.1 7.2-8.7-.2-3-1.4-7.6-1.4-7.6zm15 .6s2 7.7 6.6 7.3 5.2-8.3 5.2-8.3 1.6 4.4 1.9 7.4c.5 5.6-1.4 8.9-6.4 9.3-4.9.4-7.4-2.5-7.9-8.1-.3-3 .6-7.6.6-7.6zm16.3-197.3h-56s-13.3 27.6 1.6 85.7c.1.3.6 3.3.9 3.3h51c.4 0 .8-3 .9-3.3 14.8-58 1.6-85.7 1.6-85.7z"></path><path class="C" d="M499.9 217.3c4.4-4.4 6.9-13.5-2.2-26.5-3.3-4.7 12-14.2 8.2-17.3-5-4.2-8.9-5.3-20.2-5.9l-11.2 17.9-11.2-17.9c-11.3.6-15.1 1.7-20.2 5.9-3.8 3.2 11.5 12.6 8.2 17.3-9.1 13.1-6.6 22.1-2.2 26.5 0 0-.3 19.9-9 45.5h34.3l35.5.2c-3.6-8.8-7.1-19.8-8.9-32.6-.6-4.6-.9-9-1.1-13.1z"></path><circle class="D" cx="474.5" cy="196.7" r="2.3"></circle><circle class="D" cx="474.6" cy="190.1" r="2.3"></circle><path class="D" d="M463.4 167.4c-1.4 0-3.6.1-4.9.3.2 9.5 2.4 28.1 16.1 17.6l-11.2-17.9z"></path><path class="D" d="M485.7 167.4c1.4 0 3.6.1 4.9.3-.2 9.5-2.4 28.1-16.1 17.6l11.2-17.9z"></path><use xlink:href="#B" class="A"></use><path class="C" d="M505.2 213.7l16.5-5.8c-5.1-25.8-15.9-34.5-15.9-34.5l-10.7 17.9c.1.1 5.1 7.3 10.1 22.4z"></path><use xlink:href="#C" class="A"></use><path class="C" d="M443.8 213.7l-16.5-5.8c5.1-25.8 15.9-34.5 15.9-34.5l10.7 17.9c-.1.1-5.1 7.3-10.1 22.4z"></path><path class="E" d="M462.7 157.2c3.7 0 12.8.7 20.8 0 5.5-.5 11.2-1.6 14.4-5.8 20.6-26.7-8-65.4-37.5-64.6-21.9.7-27.4 70.7 2.3 70.4z"></path><path class="A" d="M495.5 124v-9.5c0-10.1-11.7-23-21-23s-21 12.8-21 23v9.5c-2.6 0-4.7 2.1-4.7 4.6v4.8c0 2.5 2.1 4.6 4.7 4.6 0 10.1 11.7 23.3 21 23.3s21-13.2 21-23.3c2.6 0 4.7-2.1 4.7-4.6v-4.8c0-2.5-2.1-4.6-4.7-4.6z"></path><use xlink:href="#D" class="A"></use><use xlink:href="#D" y="-0.9" class="F"></use><use xlink:href="#E" class="C"></use><use xlink:href="#F" class="F"></use><use xlink:href="#G" class="A"></use><use xlink:href="#G" y="-0.9" class="F"></use><path class="C" d="M488.2 128.2c0 .5-.4.9-.9.9s-.9-.4-.9-.9.4-.9.9-.9c.4 0 .9.4.9.9z"></path><use xlink:href="#H" class="F"></use><path class="G" d="M481.8 147.7c0 3.6-3.3 6.5-7.3 6.5-4.1 0-7.3-2.9-7.3-6.5h14.6z"></path><path class="C" d="M478.7 150.2h-8.6a1.79 1.79 0 0 1-1.8-1.8v-.6h12.2v.6a1.79 1.79 0 0 1-1.8 1.8z"></path><path class="E" d="M464.4 107.4c-3.6 7.4-9.5 17.7-14.1 17.8-6.2-12.6-.1-40.7 22.9-41.8 33.9-1.6 32.7 37 30.4 45.9-28.8-7.6-36.9-18.7-39.2-21.9z"></path><path class="D" d="M343.5 144.7h26.6l1.8 11.4h-30.3z"></path><path class="H" d="M371.2 148.1l-3.4-1.6v-10.9h-22v10.9l-3.5 1.5.9 30.9h2.6v4.8h22v-4.8h2.5z"></path><path class="A" d="M345.8 135.6v6.4l22 3.8v-10.2z"></path><path class="I" d="M360.9 257.5h-38.1l2.3 184.4h24.1l4.4-157.9h6.3l4.4 157.9h24.1l2.3-184.4h-29.8z"></path><path class="J" d="M390.7 264.7h-67.9v-7.2h68z"></path><path class="K" d="M359.7 266.6h-5.9c-2.2 0-4-1.8-4-4v-2.9c0-2.2 1.8-4 4-4h5.9c2.2 0 4 1.8 4 4v2.9c0 2.2-1.8 4-4 4zm-5.9-9c-1.1 0-2 .9-2 2v2.9c0 1.1.9 2 2 2h5.9c1.1 0 2-.9 2-2v-2.9c0-1.1-.9-2-2-2h-5.9z"></path><path class="J" d="M363.1 448c0-6.9 5.7-9.2 13.3-9.2s13.3 2.4 13.3 9.2c0 3.4 0 7.2-13.3 7.2-13.3.1-13.3-3.7-13.3-7.2z"></path><path class="B" d="M389.6 447.5c-.2 2.7-2.8 5-13.3 5-10.4 0-13-2.3-13.3-5v.5c0 3.4 0 7.2 13.3 7.2s13.3-3.8 13.3-7.2v-.5z"></path><path class="J" d="M350.5 448c0-6.9-5.7-9.2-13.3-9.2s-13.3 2.4-13.3 9.2c0 3.4 0 7.2 13.3 7.2 13.3.1 13.3-3.7 13.3-7.2z"></path><path class="B" d="M323.9 447.5c.2 2.7 2.8 5 13.3 5 10.4 0 13-2.3 13.3-5v.5c0 3.4 0 7.2-13.3 7.2s-13.3-3.8-13.3-7.2v-.5z"></path><path d="M371.5 148.2l-.8 3.1c-1.4 4.1-5 10.7-13.7 10.7-9.7 0-13.4-8.4-14.6-12.1l-.4-1.7c-17.9 6.7-12.4 62.8-12.4 62.8l-.1 46.6h56.1l-.8-46.6s4.6-56.1-13.3-62.8z" fill="#2293b5"></path><path class="I" d="M362.1 160.4l-2.2 4h-6.4l-2-4 5.3-4.3z"></path><path class="M" d="M356.8 156.1l-6.8 7.1-11.6-13.8 7.2-3.6 2.7 2.5 8.5 7.8zm11.1-10.3l-11.1 10.3 6.7 7.1 11.6-13.8z"></path><path class="I" d="M359.9 165.4l2.7 84.3-5.8 6.4-5.8-6.4 2.5-84.3z"></path><path class="C" d="M342.1 207.1v118.4h-28.5c.7-11.1 2.5-59 3.7-93.2l.3-8 1-27.9c-.1.1-14.1-15.4-11.3-32 1.8-10.3 16.8-10.3 34.7-17l.1 59.7zm29.3 0l.1-59.7c17.9 6.7 33 6.7 34.7 17 2.8 16.6-11.2 32.1-11.3 32l5 129.1h-28.5V207.1z"></path><path class="H" d="M376.9 272.1l8.3-17.6 12.4 5.9-8.3 17.6c-1.6 3.5-5.8 5-9.2 3.4s-4.8-5.8-3.2-9.3z"></path><path class="H" d="M374.9 267.1c2.9-6.2 8.7-8.7 9-8.8 1.2-.3 2.5.5 2.7 1.7.3 1.2-.5 2.5-1.8 2.8 0 0-.3.1-.7.4a38.91 38.91 0 0 0-1.5 1.2c-1.2 1-2.6 2.6-3.6 4.6-.5 1.2-1.9 1.7-3.1 1.1s-1.5-1.9-1-3z"></path><path class="D" d="M396.2 232.3l-13.1 27.9-3.3-1.6 16.2-34.3.2 8z"></path><path class="C" d="M396.4 266.4l-14.9-7 18.3-39-13.6-49.8 19.9-6.7 10.3 56c.3 1.7.1 3.5-.6 5l-19.4 41.5z"></path><path class="H" d="M336.6 272.1l-8.3-17.6-12.4 5.9 8.3 17.6c1.6 3.5 5.8 5 9.2 3.4s4.8-5.8 3.2-9.3z"></path><path class="H" d="M338.6 267.1c-2.9-6.2-8.7-8.7-9-8.8-1.2-.3-2.5.5-2.7 1.7-.3 1.2.5 2.5 1.8 2.8 0 0 .3.1.7.4a38.91 38.91 0 0 1 1.5 1.2c1.2 1 2.6 2.6 3.6 4.6.5 1.2 1.9 1.7 3.1 1.1s1.6-1.9 1-3z"></path><path class="D" d="M333.8 258.6l-3.3 1.6-13.1-27.9.3-8 16.1 34.3z"></path><path class="C" d="M317.2 266.4L297.7 225c-.7-1.6-1-3.3-.6-5l10.3-56 19.9 6.7-13.6 49.8 18.3 39-14.8 6.9zm23.5 18l-16.8 5.4-6.1-23 20.4-5.5z"></path><path class="D" d="M317.7 266.78l20.477-5.487.466 1.74-20.477 5.487zm16.4-117.38l.3 10.5 5.3 4.4-4.1 5.6 6.5 37.2 1.2-62.4z"></path><path class="C" d="M372.8 284.4l16.8 5.4 6.2-23-20.5-5.5z"></path><path class="D" d="M374.86 263.102l.466-1.74 20.477 5.487-.466 1.74zM379.5 149.4l-.4 10.5-5.2 4.4 4 5.6-6.5 37.2-1.2-62.4z"></path><path class="N" d="M377.9 166c0-.8-.9-19.1-10.2-23.7v2.1c7.5 4.9 8.3 21.5 8.3 21.7v.9l1.8-.1.1-.9zm-32.1-21.8v-2.1c-15.1 7.7-8.8 47.1-8.5 48.8l.1.9 1.8-.3-.2-.9c0-.4-6.1-38.2 6.8-46.4z"></path><path class="N" d="M383.3 194.8c-1.7-.2-3.3-.7-4.7-1.6 5-4.2 7.8-11.4 7.5-17.8-.3-6.3-3.8-10.2-9.1-10.2s-8.7 3.9-9.1 10.2c-.3 6.4 2.5 13.6 7.5 17.8-1.4.8-3 1.4-4.7 1.6-.5.1-.9.5-.8 1s.4.8.9.8h.1c2.2-.2 4.3-1 6.1-2.2 1.8 1.2 3.9 2 6.1 2.2h.1c.5 0 .9-.3.9-.8.1-.5-.3-1-.8-1zm-13.5-19.3c.1-2.6 1.1-8.5 7.2-8.5s7.1 5.9 7.2 8.5c.3 6.1-2.4 13-7.2 16.7-4.8-3.7-7.6-10.6-7.2-16.7z"></path><path class="B" d="M369.4 197.1c-.5 0-1.1 0-1.6-.1-.8-.1-1.3-.8-1.2-1.5.1-.8.8-1.3 1.5-1.2.9.1 1.8.1 2.6 0 .7-.1 1.4.5 1.5 1.2.1.8-.5 1.4-1.2 1.5-.6.1-1.1.1-1.6.1z"></path><use xlink:href="#I" class="B"></use><circle class="D" cx="338.2" cy="191" r="5.5"></circle><path class="N" d="M338.2 185.5c3 0 5.5 2.5 5.5 5.5s-2.5 5.5-5.5 5.5-5.5-2.5-5.5-5.5 2.4-5.5 5.5-5.5m0-1.8c-4 0-7.3 3.3-7.3 7.3s3.3 7.3 7.3 7.3 7.3-3.3 7.3-7.3-3.3-7.3-7.3-7.3zm3.9 7.3c0 2.2-1.8 3.9-3.9 3.9-2.2 0-3.9-1.8-3.9-3.9s1.8-3.9 3.9-3.9c2.2 0 3.9 1.8 3.9 3.9z"></path><path class="H" d="M380.6 104.5l.7-9.7c0-12.7-12.1-22.9-24.8-22.9s-24.8 10.3-24.8 22.9l.7 9.7a4.98 4.98 0 0 0-1.9 1c-1 .8-1.6 2.1-1.6 3.5v4.8c0 2.5 2 4.6 4.6 4.6 0 12 14.4 23.3 23 23.3s23-11.3 23-23.3c2.5 0 4.6-2.1 4.6-4.6V109a4.62 4.62 0 0 0-3.5-4.5z"></path><circle transform="matrix(.9626 -.2709 .2709 .9626 -16.1158 97.7659)" class="H" cx="346.1" cy="107.3" r="3.6"></circle><circle transform="matrix(.6791 -.734 .734 .6791 32.9848 288.141)" class="O" cx="346.1" cy="106.3" r="3.6"></circle><use xlink:href="#E" x="-117" y="-23" class="C"></use><use xlink:href="#J" class="H"></use><circle transform="matrix(.3461 -.9382 .9382 .3461 140.3202 414.0133)" class="O" cx="367.2" cy="106.3" r="3.6"></circle><use xlink:href="#E" x="-95.9" y="-23" class="C"></use><path class="G" d="M365,126.2c0,4.1-3.7,7.3-8.3,7.3s-8.3-3.3-8.3-7.3H365z"></path><path class="C" d="M361.8 129h-10.2a1.79 1.79 0 0 1-1.8-1.8v-1h13.8v1a1.79 1.79 0 0 1-1.8 1.8z"></path><path class="E" d="M382.5 104.4c-.8 3.2-1.8 4.5-3 7.7l-.1-8.9-5.1-15.6s-8.1 1.8-17.7 2.2c-9.6-.4-17.7-2.2-17.7-2.2l-5.2 15.6v8.9c-.6-1.5-2.6-6-3-7.7-1.3-5.4-1.8-10.7-1.6-15.7.1-1.8.3-3.5.6-5.2.4-2.3 1.1-4.6 2-6.7 0 0 5.6-14.8 24.9-14.8h1.2c5.2 0 8.9 1 12.4 2.7 0 0 5.8 2.8 10.5.5.2-.1.3 0 .3.2-.1.6-.4 2-1.3 3.2 1.2.1 2.6 0 4.3-.4h.1v.1c.1 3.2-1 6.1-2.6 8.5.9 2 1.5 4.2 1.9 6.5.3 1.7.5 3.4.6 5.2.4 5.1-.2 10.5-1.5 15.9z"></path><path class="K" d="M382.3 99.4h-5c-1.6-.8-3.8-1.3-6.8-1.3-5.1 0-8.6 1-10.3 2.9a6.91 6.91 0 0 0-3.5-1 6.91 6.91 0 0 0-3.5 1c-1.8-1.9-5.2-2.9-10.3-2.9-3.1 0-5.3.5-6.8 1.3h-5v3.6l1.6.6c-.2.7-.2 1.4-.2 2 0 5.4 1.7 8.5 10.4 8.5 7.4 0 10.3-2.1 11.6-8.3.2-.8.2-1.5.1-2.2.4-.3 1.1-.5 2.2-.5s1.8.2 2.2.5c-.1.7-.1 1.4.1 2.2 1.3 6.2 4.2 8.3 11.6 8.3 8.7 0 10.4-3.1 10.4-8.5 0-.7-.1-1.3-.2-2l1.6-.6v-3.6zm-29.4 6.4c-1.1 5.4-3.2 7-10.1 7-8.7 0-9.2-3.4-9.2-7.4 0-1.4.6-4.2 9.2-4.2 5.9 0 8.3.8 9.3 1.9.6.7 1.1 1.5.8 2.7zm17.6 6.9c-6.9 0-9-1.6-10.1-7-.2-1.2.2-1.9.9-2.7.9-1.1 3.3-1.9 9.3-1.9 8.6 0 9.2 2.8 9.2 4.2-.2 4.1-.6 7.4-9.3 7.4z"></path><path class="E" d="M265.1 170.4c0 .2-.1.4-.1.6l-1.5 5.5c-1 2.9-2 5.2-3.3 7-.6.8-1.3 1.5-2 2.1-1.4 1.1-3.2 1.7-5.5 1.7H219c-2.4 0-4.2-.6-5.7-1.8-.7-.5-1.3-1.2-1.8-2-1.3-1.8-2.3-4.2-3.3-7-.6-1.7-1.1-3.5-1.5-5.5 0-.2-.1-.4-.1-.6-5.3-23.2-3.7-64.3 8.2-76.7 4.9-5.1 11-9.5 21-9.5 8 0 13.4 2.8 17.8 6.5 1.1 1 2.2 2 3.2 3 .4.4.8.9 1.2 1.4 10.9 13.8 12.1 52.9 7.1 75.3z"></path><path class="D" d="M225.8 165.5h23.3L251 176h-27.1z"></path><path class="A" d="M246.6 166.9v-11.7h-18.3v11.7l-4.6.4 4.6 29.6h18.3l4.6-29.6z"></path><path class="A" d="M228.3 155.3v5.1l18.3 6.2v-11.3zm35.8 98.3h-53.6c-12.3 21.2 1.1 49.8 7.4 116.9 1.1 9.5-2.1 38.6-3 60.6l-1.9 18.1h11.9l1.8-18.1 6.4-60.8 3.2-80.9h1l1-6.4 2.3 141.7-.1 24.5h11.9v-18.1c-.2-120.8 26.9-151.2 11.7-177.5z"></path><path class="B" d="M240.5 438.9s1.3 7.8 5.9 7.8 5.9-7.8 5.9-7.8 1.2 4.6 1.2 7.6c0 5.6-2.2 8.7-7.2 8.7-4.9 0-7.2-3.1-7.2-8.7.2-3 1.4-7.6 1.4-7.6zm-15 .6s-2 7.7-6.6 7.3-5.2-8.3-5.2-8.3-1.6 4.4-1.9 7.4c-.5 5.6 1.4 8.9 6.4 9.3s7.4-2.5 7.9-8.1c.3-3-.6-7.6-.6-7.6z"></path><path class="C" d="M273.5 261.1l14.6-2.6-13.8-77.8-16.5 4.1z"></path><path d="M218.997 268.433l49.868-45.786 35.032 38.156-49.868 45.786z" fill="#12007f"></path><path d="M224.206 268.497l47.07-43.216 30.163 32.852-47.07 43.216z" fill="#d8d8d8"></path><path class="N" d="M280.1 234.8l-2.3 2.2c-.8.7-.8 1.9-.1 2.6l10.1 11c.7.8 1.9.8 2.6.1l2.3-2.2 2.2-2-3.4-3.7c1-1.7.9-3.9-.5-5.4a4.44 4.44 0 0 0-5.3-.9l-3.4-3.7-2.2 2zm9.8 4.8c-.3.3-.8.3-1.1 0s-.3-.8 0-1.1.8-.3 1.1 0 .3.8 0 1.1zm-9.3-4.2l11.6 12.7-2.3 2.2c-.5.4-1.2.4-1.6-.1l-10.1-11c-.4-.5-.4-1.2.1-1.6l2.3-2.2z"></path><path class="A" d="M289.1 275.7c-.9-3.2-4.5-5.1-8.1-4.1s-5.8 4.4-5 7.6l1.8 6.7c9.8-1.7 11.3-10.2 11.3-10.2z"></path><path class="B" d="M209.9 248.9H265s12.2 33.9-.6 90.7c-.1.4-.6.6-1 .6h-52c-.4 0-.9-.3-1-.6-12.7-56.8-.5-90.7-.5-90.7z"></path><path d="M225 168.2l.7 2.7c1.2 3.5 4.3 4.2 11.8 4.2 8.5 0 11.9-2.3 12.9-5.5l.4-1.4c15.6 5.9 10.8 54.8 10.8 54.8l.1 26.9h-48.9l.7-26.9c-.2 0-4.2-48.9 11.5-54.8z" fill="#bddff0"></path><circle class="S" cx="237.5" cy="188" r="1.8"></circle><circle class="S" cx="237.5" cy="206.2" r="1.8"></circle><circle class="S" cx="237.5" cy="224.3" r="1.8"></circle><circle class="S" cx="237.5" cy="242.5" r="1.8"></circle><path class="T" d="M237.5 175.1l5.9 6.2 10.1-12.1-6.3-3.1-2.4 2.2-7.3 6.8zm-9.8-8.9l9.8 8.9-6 6.3-10.1-12.1z"></path><path class="C" d="M246.3 311.4l2.4 11.2h25.8c-1-15.4-10.2-98.6-10.2-98.6 5.6-16.3 9.4-32.3 10.1-41.1.3-3.7-2.3-7.9-5.8-9.3l-18.3-6.4-4 52.5v91.7zm-17.6 0l-2.4 11.2h-25.8c1-15.4 10.2-98.6 10.2-98.6-5.6-16.3-7.6-32.3-8.3-41.1-.3-3.7 2.3-7.9 5.8-9.3l16.5-6.4 4 52.5v91.7z"></path><path class="C" d="M248.1 288.1l20.5 5.5v-23.1l-20.5-5.5z"></path><path class="D" d="M247.662 266.794l.466-1.74 20.477 5.487-.466 1.74zM257.2 169.6l-.3 9.2-4.6 3.7 3.6 4.9-9.6 32.3 2.8-54.2zm-39.4 0l.3 9.2 4.5 3.7-3.5 4.9 9.6 32.3-2.9-54.2z"></path><path class="A" d="M216.9 259.3l1.6 3.7c1.4.8 5.3 3.2 7.2 7.9.4 1.1 0 2.3-1.1 2.7a2.48 2.48 0 0 1-1.7 0l.8 1.8c1.3 3.2-.1 6.8-3.3 8.2-3.2 1.3-6.8-.1-8.1-3.3l-6.8-16 11.4-5z"></path><path class="D" d="M208.7 241.6l9.7 22.8 3.4-1.4-12.2-28.9-.9 7.5z"></path><path class="C" d="M206.4 269.5l13.7-5.8-17.2-40.6 7-16.4-7.1-27.3-15 41.4c-.6 1.8-.6 3.7.1 5.4l18.5 43.3zm20.4 18.6l-20.5 5.5v-23.1l20.5-5.5z"></path><path class="D" d="M206.304 270.475l20.477-5.487.466 1.74-20.477 5.487z"></path><path class="A" d="M258.5 123.6V114c0-10.1-11.7-23-21-23s-21 12.8-21 23v9.5c-2.6 0-4.7 2.1-4.7 4.6v4.8c0 2.5 2.1 4.6 4.7 4.6 0 10.1 11.7 23.3 21 23.3s21-13.2 21-23.3c2.6 0 4.7-2.1 4.7-4.6v-4.8c0-2.5-2.1-4.5-4.7-4.5z"></path><use xlink:href="#K" class="A"></use><use xlink:href="#K" y="-0.9" class="F"></use><use xlink:href="#E" x="-237.1" y="-0.5" class="C"></use><path class="F" d="M230.4 126c-.7-1.6-2.4-2.7-4.3-2.9-1.2-.1-3.3 0-5.2 2.4h-.3c-.2 0-.5-.1-.8-.2-.6-.2-1-.7-1-.7h-.1c-.1 0-.1.1-.1.2l.2.4c.1.2.3.5.6.8s.6.5.9.6c.1.1.3.1.3.1h.2c.3 0 .5-.1.6-.3 1.2-1.7 2.8-2.5 4.6-2.4 1.5.2 3 1.1 3.5 2.4.1.2.4.3.6.2.3-.1.4-.4.3-.6z"></path><use xlink:href="#J" x="-118.2" y="22.5" class="A"></use><use xlink:href="#J" x="-118.2" y="21.6" class="F"></use><path class="C" d="M251.1 127.7c0 .5-.4.9-.9.9s-.9-.4-.9-.9.4-.9.9-.9c.4 0 .8.4.9.9z"></path><path class="F" d="M244.5 126c.7-1.6 2.4-2.7 4.3-2.9 1.2-.1 3.3 0 5.2 2.4h.3c.2 0 .5-.1.8-.2.6-.2 1-.7 1-.7h.1c.1 0 .1.1.1.2l-.2.4c-.1.2-.3.5-.6.8s-.6.5-.9.6c-.1.1-.3.1-.3.1h-.2c-.3 0-.5-.1-.6-.3-1.2-1.7-2.8-2.5-4.6-2.4-1.5.2-3 1.1-3.5 2.4-.1.2-.4.3-.6.2-.3-.1-.4-.4-.3-.6z"></path><path class="G" d="M244.8 147.2c0 3.6-3.3 6.5-7.3 6.5-4.1 0-7.3-2.9-7.3-6.5h14.6z"></path><path class="C" d="M241.7 149.7H233a1.79 1.79 0 0 1-1.8-1.8v-.6h12.2v.6c.1 1-.7 1.8-1.7 1.8zm19.8-28.2h-3.2c-1.8-1.3-5.2-1.3-8.3-1.2-5.1 0-8.6 1-10.2 3-.6-.3-1.4-.4-2.4-.4s-1.8.1-2.4.4c-1.7-2-5.1-3-10.2-3-3.1 0-6.4 0-8.3 1.2h-3.2v3.5l1.4.8c0 5.4 2.7 11.7 10.1 11.7 6.1 0 9.9-3.3 11.2-9.8.1-.5.1-.9.1-1.4.1-.4.6-.7 1.2-.7.7 0 1.2.4 1.2.7 0 .4 0 .9.1 1.4 1.4 6.5 5.1 9.8 11.2 9.8 7.4 0 10.1-6.3 10.1-11.7l1.4-.8v-3.5zm-27.1 5.8c-1.2 5.7-4.3 8.5-9.6 8.5-8 0-8.5-8.5-8.5-10.2 0-2.6 5.8-2.8 8.5-2.8 5.8 0 10.2 2.1 9.6 4.5zm15.6 8.5c-5.3 0-8.4-2.8-9.6-8.5-.5-2.4 3.8-4.5 9.6-4.5 2.6 0 8.5.2 8.5 2.8 0 1.7-.4 10.2-8.5 10.2z"></path><path class="E" d="M215.5 158c-6.6-22.1-11.3-35.9-7.6-50.8 7-29 42.5-30.7 46.1-12.5.8 3.9 8.6 7.7 4.5 26.8-.3-.1-9.4-10.9-11.8-16.4-31.2-.2-20.7 46-31.2 52.9z"></path><path class="N" d="M256.8 187.2c0-.8-.9-19.1-10.2-23.7v2.1c7.5 4.9 8.3 21.5 8.3 21.7v.9l1.8-.1.1-.9zm-28.5-21.7v-2.1c-15.1 7.7-8.8 47.1-8.5 48.9l.1.9 1.8-.3-.2-.9c0-.4-6.1-38.3 6.8-46.5z"></path><path class="N" d="M262.2 215.9c-1.7-.2-3.3-.7-4.7-1.6 5-4.2 7.8-11.4 7.5-17.8-.3-6.3-3.8-10.3-9.1-10.3s-8.7 3.9-9.1 10.3c-.3 6.4 2.5 13.7 7.5 17.8-1.4.8-3 1.4-4.7 1.6-.5.1-.9.5-.8 1s.4.8.9.8h.1c2.2-.2 4.3-1 6.1-2.2 1.8 1.2 3.9 2 6.1 2.2h.1c.5 0 .9-.3.9-.8.1-.5-.3-.9-.8-1zm-13.6-19.2c.1-2.6 1.1-8.5 7.2-8.5s7.1 6 7.2 8.5c.3 6.1-2.4 13-7.2 16.7-4.7-3.8-7.5-10.7-7.2-16.7z"></path><path class="B" d="M248.2 218.3c-.5 0-1.1 0-1.6-.1-.8-.1-1.3-.8-1.2-1.5.1-.8.8-1.3 1.5-1.2.9.1 1.8.1 2.6 0 .7-.1 1.4.5 1.5 1.2.1.8-.5 1.4-1.2 1.5-.5.1-1 .1-1.6.1z"></path><use xlink:href="#I" x="-121.1" y="21.2" class="B"></use><circle class="D" cx="220.7" cy="212.2" r="5.5"></circle><path class="N" d="M220.7 206.7c3 0 5.5 2.5 5.5 5.5s-2.5 5.5-5.5 5.5-5.5-2.5-5.5-5.5 2.5-5.5 5.5-5.5m0-1.8c-4 0-7.3 3.3-7.3 7.3s3.3 7.3 7.3 7.3 7.3-3.3 7.3-7.3-3.3-7.3-7.3-7.3z"></path><circle class="N" cx="220.7" cy="212.2" r="3.9"></circle><path class="I" d="M99.8 263.5l2.3 184.4h24.1l4.4-157.9h6.3l4.4 157.9h24.1l2.3-184.4h-29.9"></path><path class="H" d="M145.3 167.7l-4.6-.4v-12h-18.4v12l-4.6.4 4.6 29.3h18.4z"></path><path class="A" d="M122.3 155.4v5.2l18.4 6.7v-11.9z"></path><circle class="D" cx="131.5" cy="196.7" r="2.3"></circle><circle class="D" cx="131.6" cy="190.1" r="2.3"></circle><path class="D" d="M120.4 167.4c-1.4 0-3.6.1-4.9.3.2 9.5 2.4 28.1 16.1 17.6l-11.2-17.9z"></path><path class="D" d="M142.7 167.4c1.4 0 3.6.1 4.9.3-.2 9.5-2.4 28.1-16.1 17.6l11.2-17.9z"></path><path class="C" d="M106.1 217.3c-4.4-4.4-6.9-13.5 2.2-26.5 3.3-4.7-12-14.2-8.2-17.3 5-4.2 8.9-5.3 20.2-5.9l11.2 17.9 11.2-17.9c11.3.6 15.1 1.7 20.2 5.9 3.8 3.2-11.5 12.6-8.2 17.3 9.1 13.1 6.6 22.1 2.2 26.5 0 0 .3 19.9 9 45.5H97.2c8.6-25.6 8.9-45.5 8.9-45.5z"></path><use xlink:href="#C" x="-343" class="H"></use><path class="C" d="M100.8 213.7l-16.5-5.8c5.1-25.8 15.9-34.5 15.9-34.5l10.7 17.9c-.1.1-5.1 7.3-10.1 22.4z"></path><use xlink:href="#B" x="-343" class="H"></use><path class="C" d="M162.2 213.7l16.5-5.8c-5.1-25.8-15.9-34.5-15.9-34.5l-10.7 17.9c.1.1 5.1 7.3 10.1 22.4z"></path><path class="E" d="M169.4 169.1c-3.2-1-6.4-3.8-9.4-5.2.3.7.8 3 1.3 3.6-3.3-1.3-5.9-3.9-7.9-6.8-5.2-7.4-7-16.7-6.3-25.7.1-2 .4-4.1 1.2-5.9.6-1.4 1.5-2.6 2.7-3.7.7-.6 1.6-1.2 2.5-1.4 1.2-.3 2.5.1 3.6.7 2.6 1.5 4.2 4.2 5.3 7 3.3 8.6 2.5 18.1 3.6 27.2.4 3.7 1.3 7.3 3.4 10.2z"></path><path class="H" d="M152.5 123.8v-9.5c0-10.1-11.7-22.9-21-22.9s-21 12.8-21 22.9v9.5c-2.6 0-4.7 2.1-4.7 4.6v4.8c0 2.5 2.1 4.6 4.7 4.6 0 10.1 11.7 23.3 21 23.3s21-13.2 21-23.3c2.6 0 4.7-2.1 4.7-4.6v-4.8c0-2.5-2.1-4.6-4.7-4.6z"></path><use xlink:href="#J" x="-247.1" y="22.8" class="A"></use><use xlink:href="#G" x="-366" y="-1.1" class="F"></use><path class="C" d="M122.2 128c0 .5-.4.9-.9.9s-.9-.4-.9-.9.4-.9.9-.9c.4 0 .8.4.9.9z"></path><use xlink:href="#F" x="-343.1" y="-0.2" class="F"></use><use xlink:href="#K" x="-83" y="0.3" class="A"></use><use xlink:href="#D" x="-320.1" y="-1.1" class="F"></use><use xlink:href="#E" x="-320.1" y="-0.2" class="C"></use><use xlink:href="#H" x="-343" y="-0.2" class="F"></use><path class="G" d="M138.8 147.5c0 3.6-3.3 6.5-7.3 6.5-4.1 0-7.3-2.9-7.3-6.5h14.6z"></path><path class="C" d="M135.7 150h-8.6a1.79 1.79 0 0 1-1.8-1.8v-.6h12.2v.6a1.79 1.79 0 0 1-1.8 1.8z"></path><path class="E" d="M122.1 114.7c-.6 2.2-1.8 5.2-4 7 6.2-1.6 11.6-5.3 15.4-9.7-.4 2.3-1.8 4.7-4 6.9 1.7-.7 3.3-1.7 4.9-2.8 3.5-2.4 5.7-5.6 7.9-8.8 2.2 8.2 6.1 16 14.8 20.3 6.2-12.6 4.7-41.6-22.7-42.5-33.9-1-32.7 35.2-30.4 44 7.2-2.2 16.7-12.3 18.1-14.4z"></path><path class="J" d="M153.3 438.8c7.6 0 13.3 2.4 13.3 9.2 0 3.4 0 7.2-13.3 7.2S140 451.4 140 448c.1-6.8 5.8-9.2 13.3-9.2"></path><path class="B" d="M140.1 447.5v.5c0 3.4 0 7.2 13.3 7.2s13.3-3.8 13.3-7.2v-.5"></path><path class="J" d="M166.6 447.5c-.2 2.7-2.8 5-13.3 5-10.4 0-13-2.3-13.3-5m-25.8-8.7c-7.6 0-13.3 2.4-13.3 9.2 0 3.4 0 7.2 13.3 7.2s13.3-3.8 13.3-7.2c0-6.8-5.7-9.2-13.3-9.2"></path><path class="B" d="M127.4 447.5v.5c0 3.4 0 7.2-13.3 7.2s-13.3-3.8-13.3-7.2v-.5"></path><path class="J" d="M100.9 447.5c.2 2.7 2.8 5 13.3 5 10.4 0 13-2.3 13.3-5"></path><defs><path id="B" d="M517.3 202.6a6.16 6.16 0 0 0-11.8 3.6c3.1 10.3 4.2 23 3.1 37.9-.6 9.1-2 18.4-4 27.6-2.6 1.6-4.4 3.8-5.1 6.2-.3 1.1.3 2.2 1.4 2.6.2.1.4.1.6.1.4 0 .7-.1 1.1-.3-.1.4-.2.9-.3 1.3-.9 3.3 1 6.7 4.3 7.6.6.2 1.1.2 1.6.2 2.7 0 4.3-1.8 5.1-4.6 3.6-13.2 6.9-26.6 7.8-39.8 1-16.4-.2-30.7-3.8-42.4z"></path><path id="C" d="M431.7 202.6a6.16 6.16 0 0 1 11.8 3.6c-3.1 10.3-4.2 23-3.1 37.9.6 9.1 2 18.4 4 27.6 2.6 1.6 4.4 3.8 5.1 6.2.3 1.1-.3 2.2-1.4 2.6-.2.1-.4.1-.6.1-.4 0-.7-.1-1.1-.3.1.4.2.9.3 1.3.9 3.3-1 6.7-4.3 7.6-.6.2-1.1.2-1.6.2-2.7 0-4.3-1.8-5.1-4.6-3.6-13.2-6.9-26.6-7.8-39.8-1-16.4.2-30.7 3.8-42.4z"></path><path id="D" d="M466.7 130.1c.1 2-1.5 3.7-3.5 3.7-2 .1-3.7-1.5-3.7-3.5-.1-2 1.5-3.7 3.5-3.7 2-.1 3.6 1.5 3.7 3.5z"></path><path id="E" d="M465.2 128.2c0 .5-.4.9-.9.9s-.9-.4-.9-.9.4-.9.9-.9.9.4.9.9z"></path><path id="F" d="M467.5 126.4c-.7-1.6-2.4-2.7-4.3-2.9-1.2-.1-3.3 0-5.2 2.4h-.3c-.2 0-.5-.1-.8-.2-.6-.2-1-.7-1-.7h-.1c-.1 0-.1.1-.1.2l.2.4c.1.2.3.5.6.8s.6.5.9.6c.1.1.3.1.3.1h.2c.3 0 .5-.1.6-.3 1.2-1.7 2.8-2.5 4.6-2.4 1.5.2 3 1.1 3.5 2.4.1.2.4.3.6.2.3-.1.4-.3.3-.6z"></path><path id="G" d="M489.7 130.1c.1 2-1.5 3.7-3.5 3.7-2 .1-3.7-1.5-3.7-3.5-.1-2 1.5-3.7 3.5-3.7 1.9-.1 3.6 1.5 3.7 3.5z"></path><path id="H" d="M481.6 126.4c.7-1.6 2.4-2.7 4.3-2.9 1.2-.1 3.3 0 5.2 2.4h.3c.2 0 .5-.1.8-.2.6-.2 1-.7 1-.7h.1c.1 0 .1.1.1.2l-.2.4c-.1.2-.3.5-.6.8s-.6.5-.9.6c-.1.1-.3.1-.3.1h-.2c-.3 0-.5-.1-.6-.3-1.2-1.7-2.8-2.5-4.6-2.4-1.5.2-3 1.1-3.5 2.4-.1.2-.4.3-.6.2-.3-.1-.4-.3-.3-.6z"></path><path id="I" d="M384.6 197.1c-.5 0-1.1 0-1.6-.1-.8-.1-1.3-.8-1.2-1.5.1-.8.8-1.3 1.5-1.2.8.1 1.7.1 2.6 0 .8-.1 1.4.5 1.5 1.2.1.8-.5 1.4-1.2 1.5-.5.1-1 .1-1.6.1z"></path><path id="J" d="M370.8 107.1c.1 2-1.5 3.7-3.5 3.7-2 .1-3.7-1.5-3.7-3.5-.1-2 1.5-3.7 3.5-3.7 1.9 0 3.6 1.5 3.7 3.5z"></path><path id="K" d="M229.6 129.6c.1 2-1.5 3.7-3.5 3.7-2 .1-3.7-1.5-3.7-3.5-.1-2 1.5-3.7 3.5-3.7s3.6 1.5 3.7 3.5z"></path></defs></svg> 